<?xml version="1.0" encoding="UTF-8"?>
<svg version="1.1" xmlns="http://www.w3.org/2000/svg" width="710" height="330">
<path d="M0 0 C6.6 0 13.2 0 20 0 C20 16.17 20 32.34 20 49 C28.91 49 37.82 49 47 49 C47 40.09 47 31.18 47 22 C53.6 22 60.2 22 67 22 C67 72.16 67 122.32 67 174 C58.42 178.95 49.84 183.9 41 189 C34.25 186.75 34.25 186.75 31.3515625 185.0546875 C30.73925781 184.70019531 30.12695312 184.34570312 29.49609375 183.98046875 C28.87863281 183.61566406 28.26117188 183.25085938 27.625 182.875 C26.98433594 182.50246094 26.34367187 182.12992188 25.68359375 181.74609375 C24.11951523 180.83565998 22.55934466 179.91851809 21 179 C22.28276271 175.15171187 23.57086026 174.81411795 27.05859375 172.86328125 C28.08404297 172.28642578 29.10949219 171.70957031 30.16601562 171.11523438 C31.78540039 170.22288086 31.78540039 170.22288086 33.4375 169.3125 C34.51322266 168.70599609 35.58894531 168.09949219 36.69726562 167.47460938 C44.71532269 163 44.71532269 163 47 163 C47 131.98 47 100.96 47 69 C38.09 69 29.18 69 20 69 C20.04189453 71.30637451 20.08378906 73.61274902 20.12695312 75.98901367 C20.25955519 83.6122424 20.3478935 91.23552234 20.41449738 98.85959911 C20.45623675 103.48197144 20.51283815 108.10316164 20.60351562 112.72485352 C20.69049242 117.18588666 20.73828356 121.64578365 20.75901794 126.10759926 C20.77379147 127.80900274 20.80264328 129.51034448 20.84584045 131.21126366 C21.17040579 144.5216025 21.17040579 144.5216025 18.27563477 148.1781311 C15.0313645 150.31321695 12.76158882 150.98476822 8.875 151.0625 C5.34956986 149.75962364 2.89229406 148.42844052 0 146 C-0.59244027 143.20480851 -0.76641235 141.26646065 -0.68115234 138.47753906 C-0.68246658 137.3501255 -0.68246658 137.3501255 -0.68380737 136.19993591 C-0.67963398 133.72076708 -0.63300048 131.24431969 -0.5859375 128.765625 C-0.57474431 127.04499795 -0.5662047 125.32435175 -0.56021118 123.60369873 C-0.53732211 119.07894931 -0.4783993 114.55535893 -0.4119873 110.03106689 C-0.3505658 105.41279785 -0.32319652 100.79434117 -0.29296875 96.17578125 C-0.22865468 87.11659679 -0.12312996 78.05857618 0 69 C-9.24 69 -18.48 69 -28 69 C-28.41316803 80.88486215 -28.72193235 92.76031887 -28.8523407 104.65171242 C-28.91697956 110.17512631 -29.02543913 115.69009536 -29.23779297 121.20996094 C-31.20802568 144.13340113 -31.20802568 144.13340113 -24.75286865 165.29751587 C-19.21496031 170.32811587 -12.9573097 172.88867754 -5.87536621 175.0703125 C-2.11357733 176.28660561 0.78627942 178.00454672 4.1171875 180.12109375 C6.03610317 181.22717889 7.95536412 182.33266528 9.875 183.4375 C12.03516994 184.68226791 14.19532573 185.92706038 16.35546875 187.171875 C17.43747559 187.79513672 18.51948242 188.41839844 19.63427734 189.06054688 C23.1489325 191.08582038 26.66255469 193.11287479 30.17578125 195.140625 C30.76593018 195.48122452 31.3560791 195.82182404 31.96411133 196.17274475 C34.79692756 197.80769907 37.62969 199.44274655 40.46240234 201.07788086 C42.44748323 202.22333766 44.43555261 203.36363863 46.42724609 204.49755859 C48.00208438 205.41723546 49.5581982 206.3713009 51.07666016 207.38134766 C53.02205379 208.71690784 53.02205379 208.71690784 56 210 C60.45204892 208.89490338 64.15367188 206.93088001 68.09765625 204.62890625 C69.22880859 203.97212891 70.35996094 203.31535156 71.52539062 202.63867188 C72.70448445 201.94671233 73.88352043 201.25465419 75.0625 200.5625 C76.24515168 199.87384891 77.42809212 199.18569349 78.61132812 198.49804688 C84.71793826 194.95331672 84.71793826 194.95331672 90.74780273 191.28100586 C93 190 93 190 95 190 C95 150.07 95 110.14 95 69 C89.06 69 83.12 69 77 69 C76.97316303 65.85411056 76.95324098 62.70844729 76.9375 59.5625 C76.92912109 58.66466797 76.92074219 57.76683594 76.91210938 56.84179688 C76.90888672 55.98779297 76.90566406 55.13378906 76.90234375 54.25390625 C76.89710693 53.46314697 76.89187012 52.6723877 76.88647461 51.85766602 C77 50 77 50 78 49 C80.73894085 48.91141354 83.4525327 48.88476521 86.19140625 48.90234375 C87.01124496 48.9037587 87.83108368 48.90517365 88.67576599 48.90663147 C91.30471382 48.91224711 93.93357773 48.92480221 96.5625 48.9375 C98.34049357 48.94251299 100.11848846 48.94707624 101.89648438 48.95117188 C106.26435545 48.96222161 110.63216348 48.97949669 115 49 C115.56207492 68.57496115 115.98452537 88.14827447 116.24349213 107.72964668 C116.36696933 116.82333069 116.53506796 125.91198713 116.81054688 135.00244141 C117.05071728 142.93157935 117.20480059 150.85707796 117.25812387 158.78975189 C117.28928412 162.98775556 117.3616979 167.17535623 117.53752136 171.36999893 C118.56300961 196.8047384 118.56300961 196.8047384 112.66344261 203.75117683 C106.96407153 208.37545132 100.71092465 211.27712938 93.88279533 213.86021233 C89.90124922 215.43441953 86.34601479 217.52902735 82.70703125 219.76171875 C81.53442283 220.43604495 80.35932713 221.10606659 79.18164062 221.77148438 C75.71001396 223.74578336 72.23937199 225.72178263 68.76953125 227.69921875 C67.77542236 228.26471436 66.78131348 228.83020996 65.75708008 229.4128418 C62.97730571 230.95148368 62.97730571 230.95148368 60.4519043 232.83129883 C58 234 58 234 55.5480957 233.38769531 C54.70722412 232.92975586 53.86635254 232.47181641 53 232 C51.63524536 231.27055176 51.63524536 231.27055176 50.24291992 230.52636719 C49.24881104 229.95563477 48.25470215 229.38490234 47.23046875 228.796875 C46.10688965 228.15355225 44.98331055 227.51022949 43.82568359 226.84741211 C42.61288279 226.14840128 41.40015681 225.44926061 40.1875 224.75 C38.92540022 224.0252852 37.66319169 223.30075976 36.40087891 222.57641602 C27.56007855 217.49788703 18.74630552 212.37315598 9.9465332 207.22387695 C2.60740645 202.93010166 -4.75507414 198.67815567 -12.125 194.4375 C-20.62820358 189.5404774 -29.11069782 184.61026986 -37.5625 179.625 C-38.50303223 179.07126709 -39.44356445 178.51753418 -40.41259766 177.94702148 C-41.26772949 177.44114502 -42.12286133 176.93526855 -43.00390625 176.4140625 C-43.75486572 175.9701416 -44.5058252 175.5262207 -45.27954102 175.06884766 C-47 174 -47 174 -48 173 C-48.09664967 171.05105041 -48.12187121 169.09854545 -48.12025452 167.14720154 C-48.12162918 165.87528961 -48.12300385 164.60337769 -48.12442017 163.29292297 C-48.12088055 161.87033058 -48.11724573 160.44773842 -48.11352539 159.02514648 C-48.11324353 157.53733319 -48.11340124 156.04951976 -48.1139679 154.56170654 C-48.1142559 150.51023 -48.10835867 146.4587828 -48.10139394 142.40731311 C-48.09516092 138.17788003 -48.09455664 133.94844636 -48.09336853 129.7190094 C-48.09025506 121.70440278 -48.08204146 113.68980973 -48.07201904 105.67520911 C-48.06085839 96.55323316 -48.05534758 87.43125658 -48.05032361 78.30927551 C-48.03985886 59.53950909 -48.0220587 40.76975613 -48 22 C-41.4 22 -34.8 22 -28 22 C-28 30.91 -28 39.82 -28 49 C-18.76 49 -9.52 49 0 49 C0 32.83 0 16.66 0 0 Z " fill="#2D62E9" transform="translate(155,37)"/>
<path d="M0 0 C1.02544922 -0.00128906 2.05089844 -0.00257812 3.10742188 -0.00390625 C4.72680664 0.00189453 4.72680664 0.00189453 6.37890625 0.0078125 C7.45462891 0.00394531 8.53035156 0.00007813 9.63867188 -0.00390625 C11.1787793 -0.00197266 11.1787793 -0.00197266 12.75 0 C13.69673584 0.00112793 14.64347168 0.00225586 15.61889648 0.00341797 C17.94140625 0.1328125 17.94140625 0.1328125 19.94140625 1.1328125 C20.93926465 3.97025245 21.82362192 6.77755862 22.65625 9.6640625 C22.91265762 10.52914429 23.16906525 11.39422607 23.4332428 12.28552246 C24.25580929 15.06584754 25.0676875 17.84915753 25.87890625 20.6328125 C26.6886761 23.38723681 27.50064653 26.14099913 28.31385803 28.89440918 C28.81945988 30.60893077 29.32272856 32.32414281 29.82322693 34.04016113 C31.40809075 39.44766113 33.12329228 44.79923921 34.94140625 50.1328125 C35.19792969 49.16988281 35.45445312 48.20695312 35.71875 47.21484375 C38.30294145 37.65008482 41.07903476 28.14224137 43.96780396 18.66537476 C44.36619682 17.3542225 44.76129115 16.04206335 45.15304565 14.72891235 C45.71111826 12.86201152 46.28305372 10.99927205 46.85546875 9.13671875 C47.18498535 8.05205322 47.51450195 6.9673877 47.85400391 5.84985352 C48.93627616 3.14563081 49.54457986 1.76042 51.94140625 0.1328125 C54.28564453 -0.22363281 54.28564453 -0.22363281 57.01171875 -0.1953125 C57.99011719 -0.19015625 58.96851563 -0.185 59.9765625 -0.1796875 C60.99621094 -0.1590625 62.01585937 -0.1384375 63.06640625 -0.1171875 C64.09378906 -0.11203125 65.12117188 -0.106875 66.1796875 -0.1015625 C73.78743012 -0.02116363 73.78743012 -0.02116363 74.94140625 1.1328125 C75.05261072 3.97761218 75.09880523 6.79835907 75.10253906 9.64404297 C75.10998642 10.98302643 75.10998642 10.98302643 75.11758423 12.34906006 C75.13224599 15.31604774 75.13901451 18.28298197 75.14453125 21.25 C75.15027941 23.30404666 75.15603718 25.35809329 75.1618042 27.41213989 C75.17232563 31.72479504 75.17816081 36.03743147 75.18164062 40.35009766 C75.18712765 45.88427244 75.21115539 51.41820147 75.23961258 56.95229912 C75.25820921 61.19699838 75.26344297 65.4416381 75.2649765 69.68637466 C75.26801031 71.72698434 75.27606321 73.7675928 75.28916168 75.80816269 C75.30616006 78.65989783 75.30435717 81.51102814 75.29785156 84.36279297 C75.30706635 85.21070404 75.31628113 86.05861511 75.32577515 86.93222046 C75.28452676 92.68551254 75.28452676 92.68551254 73.62376022 94.85052681 C70.89016454 96.93406611 68.23726365 96.49046105 64.87890625 96.4453125 C63.62980469 96.44144531 62.38070312 96.43757813 61.09375 96.43359375 C57.94140625 96.1328125 57.94140625 96.1328125 55.94140625 94.1328125 C55.70089722 91.61447144 55.70089722 91.61447144 55.71435547 88.39794922 C55.71450653 87.19685516 55.71465759 85.99576111 55.71481323 84.75827026 C55.7251358 83.45616608 55.73545837 82.15406189 55.74609375 80.8125 C55.74982349 79.47014577 55.75267064 78.12778883 55.75466919 76.78543091 C55.76230881 73.2507985 55.78195995 69.71633022 55.80407715 66.1817627 C55.8245286 62.5756248 55.8336694 58.96946041 55.84375 55.36328125 C55.86520565 48.28639115 55.89934546 41.20961253 55.94140625 34.1328125 C54.58975942 38.71837091 53.23888782 43.30415679 51.88867188 47.89013672 C51.43119207 49.44358178 50.9735164 50.99696918 50.515625 52.55029297 C50.07080565 54.05936212 49.62634681 55.56853759 49.18225098 57.07781982 C48.74075669 58.57694055 48.29796852 60.07568083 47.85388184 61.57403564 C46.80092792 65.14016094 45.77717019 68.70893731 44.82617188 72.30371094 C44.48779297 73.56473633 44.14941406 74.82576172 43.80078125 76.125 C43.51170898 77.23987793 43.22263672 78.35475586 42.92480469 79.50341797 C41.94140625 82.1328125 41.94140625 82.1328125 38.94140625 84.1328125 C36.53125 84.3984375 36.53125 84.3984375 33.87890625 84.3828125 C33.00105469 84.38796875 32.12320313 84.393125 31.21875 84.3984375 C28.94140625 84.1328125 28.94140625 84.1328125 26.94140625 82.1328125 C26.20771891 79.85891513 25.55918337 77.55728384 24.953125 75.24609375 C24.76804886 74.55202927 24.58297272 73.85796478 24.39228821 73.14286804 C23.79803196 70.91200282 23.21269216 68.67893864 22.62890625 66.4453125 C19.76490725 55.52806452 16.64841725 44.79789777 12.94140625 34.1328125 C12.94584747 34.88005585 12.9502887 35.62729919 12.9548645 36.39718628 C12.99489809 43.43086796 13.02536862 50.46451034 13.04503059 57.49827385 C13.05547874 61.11462123 13.06965657 64.73087466 13.09228516 68.34716797 C13.11397705 71.83550061 13.1259671 75.32374274 13.13116074 78.8121376 C13.13666794 80.79421221 13.15228659 82.77625029 13.16799927 84.75827026 C13.16815033 85.95936432 13.16830139 87.16045837 13.16845703 88.39794922 C13.17289825 89.45940155 13.17733948 90.52085388 13.18191528 91.61447144 C12.94140625 94.1328125 12.94140625 94.1328125 10.94140625 96.1328125 C8.39605484 96.33130321 5.98423866 96.41133025 3.44140625 96.3828125 C2.75175781 96.39054687 2.06210937 96.39828125 1.3515625 96.40625 C-3.80526082 96.38614543 -3.80526082 96.38614543 -6.05859375 94.1328125 C-6.25216355 91.18554115 -6.3207579 88.33256146 -6.30151367 85.38452148 C-6.30341202 84.47875366 -6.30531036 83.57298584 -6.30726624 82.63977051 C-6.31098085 79.63606196 -6.30026083 76.63259343 -6.2890625 73.62890625 C-6.28787107 71.54907764 -6.28741746 69.46924849 -6.28767395 67.38941956 C-6.28610795 63.02723836 -6.27780876 58.6651391 -6.2644043 54.30297852 C-6.24740377 48.69809737 -6.24359018 43.09330628 -6.24434948 37.48840237 C-6.24407819 33.19317253 -6.23860384 28.89796258 -6.23134804 24.60273933 C-6.2281554 22.53537204 -6.22619258 20.46800249 -6.22545433 18.40063286 C-6.22329765 15.5176188 -6.21456836 12.63470226 -6.20385742 9.75170898 C-6.20431061 8.88882767 -6.20476379 8.02594635 -6.20523071 7.13691711 C-6.16629673 0.00735521 -6.16629673 0.00735521 0 0 Z " fill="#F5F5F5" transform="translate(303.05859375,71.8671875)"/>
<path d="M0 0 C12.21 0 24.42 0 37 0 C37 6.6 37 13.2 37 20 C31.06 20 25.12 20 19 20 C19 59.93 19 99.86 19 141 C20.98 141.66 22.96 142.32 25 143 C26.8909384 143.98783594 28.75429199 145.02988918 30.58984375 146.1171875 C32.13768555 147.02791016 32.13768555 147.02791016 33.71679688 147.95703125 C35.31104492 148.90642578 35.31104492 148.90642578 36.9375 149.875 C40.05351687 151.71464477 43.16948375 153.55406102 46.29248047 155.38183594 C47.91824696 156.3534843 49.52817939 157.35359187 51.10205078 158.40722656 C54.07944856 160.356158 55.50569802 161.08019094 59.08203125 160.5 C62.18098973 158.9069611 64.86203046 157.03526319 67.6875 155 C73.07098604 151.77523856 73.07098604 151.77523856 76.90625 152.703125 C79.76873368 154.29518053 82.35455652 156.07103079 85 158 C86.71557133 158.98246381 88.44386727 159.94324626 90.1875 160.875 C91.45858156 161.5828878 92.72951673 162.29103897 94 163 C91.3565554 166.02373778 88.23454176 167.72440477 84.7578125 169.6875 C83.84973343 170.20316528 83.84973343 170.20316528 82.92330933 170.72924805 C80.99310651 171.82410773 79.05920128 172.91222254 77.125 174 C75.19880054 175.08924578 73.27337752 176.17985288 71.34811401 177.27075195 C69.59677155 178.26214254 67.84359955 179.2502991 66.09033203 180.23828125 C63.02041216 181.91836762 63.02041216 181.91836762 60.40576172 183.85546875 C58 185 58 185 55.5480957 184.38769531 C54.28678833 183.70078613 54.28678833 183.70078613 53 183 C51.63524536 182.27055176 51.63524536 182.27055176 50.24291992 181.52636719 C49.24881104 180.95563477 48.25470215 180.38490234 47.23046875 179.796875 C46.10487549 179.15242432 44.97928223 178.50797363 43.81958008 177.84399414 C42.60879573 177.14615393 41.39810436 176.4481524 40.1875 175.75 C38.94370202 175.03555439 37.69980438 174.32128226 36.45581055 173.60717773 C32.63367664 171.4108831 28.81610725 169.20674628 25 167 C24.39273071 166.64891174 23.78546143 166.29782349 23.15979004 165.93609619 C19.20760044 163.65020409 15.25895199 161.3582885 11.3125 159.0625 C10.28600342 158.46598633 9.25950684 157.86947266 8.2019043 157.25488281 C7.26515869 156.70799805 6.32841309 156.16111328 5.36328125 155.59765625 C4.54126221 155.11820557 3.71924316 154.63875488 2.87231445 154.14477539 C1 153 1 153 0 152 C-0.09666937 150.03838396 -0.12187097 148.07323355 -0.12025452 146.10923767 C-0.12162918 144.82891159 -0.12300385 143.54858551 -0.12442017 142.22946167 C-0.12088055 140.79742409 -0.11724573 139.36538674 -0.11352539 137.93334961 C-0.11324353 136.43568422 -0.11340124 134.9380187 -0.1139679 133.44035339 C-0.11425591 129.36201828 -0.10835864 125.28371233 -0.10139394 121.20538402 C-0.09516095 116.94792372 -0.09455665 112.69046282 -0.09336853 108.43299866 C-0.09025505 100.36526813 -0.08204144 92.29755109 -0.07201904 84.22982651 C-0.06085842 75.04739221 -0.05534758 65.86495728 -0.05032361 56.68251789 C-0.03985884 37.78833605 -0.02151315 18.89417271 0 0 Z " fill="#2C62EB" transform="translate(60,86)"/>
<path d="M0 0 C1.18686401 0.01522705 1.18686401 0.01522705 2.39770508 0.03076172 C10.75768433 0.25314286 17.3003034 1.73311361 23.55859375 7.5703125 C30.16682479 15.50018975 30.22339193 25.29509005 30.265625 35.109375 C30.27132507 36.14257874 30.27702515 37.17578247 30.28289795 38.24029541 C30.29232147 40.42223088 30.29887137 42.60418041 30.30273438 44.78613281 C30.31242649 48.099866 30.34347018 51.41297499 30.375 54.7265625 C30.38153241 56.85416301 30.38678194 58.98176793 30.390625 61.109375 C30.4029718 62.08888123 30.4153186 63.06838745 30.42803955 64.07757568 C30.39949902 73.02531833 28.81379528 81.27045877 23.0625 88.375 C14.96969069 95.82890332 6.55328484 96.85627998 -4.0625 96.65625 C-10.90812883 96.15938984 -16.47549526 94.31317395 -21.875 90.0625 C-28.90203696 80.90605791 -30.25378816 72.34797987 -30.203125 61.00390625 C-30.20503845 60.04153549 -30.2069519 59.07916473 -30.20892334 58.08763123 C-30.21027624 56.06484717 -30.20664279 54.04205417 -30.19824219 52.01928711 C-30.18754185 48.94950544 -30.19816217 45.88031047 -30.2109375 42.81054688 C-30.20961552 40.83333206 -30.20705232 38.85611761 -30.203125 36.87890625 C-30.20717346 35.97443253 -30.21122192 35.0699588 -30.21539307 34.13807678 C-30.13047942 22.40473303 -28.03023275 13.46773275 -19.5625 5 C-13.16303494 1.03842639 -7.38561704 -0.13698938 0 0 Z M-7.9375 16.375 C-8.96488606 19.45715818 -9.07623428 21.60630573 -9.09863281 24.83691406 C-9.10824036 25.95527649 -9.1178479 27.07363892 -9.12774658 28.22589111 C-9.13199646 29.4352533 -9.13624634 30.64461548 -9.140625 31.890625 C-9.14632507 33.134953 -9.15202515 34.37928101 -9.15789795 35.66131592 C-9.16735234 38.29752254 -9.17424669 40.93361522 -9.17773438 43.56982422 C-9.18212053 46.26625086 -9.19601683 48.96235779 -9.21875 51.65869141 C-9.24924789 55.54860134 -9.25978706 59.43810875 -9.265625 63.328125 C-9.2779718 64.52939026 -9.2903186 65.73065552 -9.30303955 66.96832275 C-9.28645294 73.21902745 -8.97648573 77.8606952 -5.9375 83.375 C0.15856557 84.5214408 0.15856557 84.5214408 6.0625 83.125 C8.31907828 81.44813101 8.31907828 81.44813101 9.0625 78.375 C9.16083265 76.51515172 9.20072513 74.65198344 9.20776367 72.78955078 C9.21414352 71.64471222 9.22052338 70.49987366 9.22709656 69.32034302 C9.22820938 68.08283295 9.2293222 66.84532288 9.23046875 65.5703125 C9.23379715 64.2990451 9.23712555 63.02777771 9.24055481 61.71798706 C9.24562207 59.02631129 9.24839526 56.33473646 9.24780273 53.64306641 C9.2477012 50.20096014 9.26134614 46.75906057 9.27857494 43.31700325 C9.29239637 40.02644745 9.29178446 36.73589339 9.29296875 33.4453125 C9.30015427 32.21185089 9.30733978 30.97838928 9.31474304 29.70755005 C9.31166641 28.55640717 9.30858978 27.40526428 9.30541992 26.21923828 C9.30684494 25.20902618 9.30826996 24.19881409 9.30973816 23.1579895 C8.94570907 19.060365 7.98068266 16.29318266 5.0625 13.375 C2.72845946 13.017852 2.72845946 13.017852 0.125 13.0625 C-0.75027344 13.04574219 -1.62554688 13.02898437 -2.52734375 13.01171875 C-5.39424145 13.44384433 -6.22276836 14.07973225 -7.9375 16.375 Z " fill="#F5F5F5" transform="translate(559.9375,71.625)"/>
<path d="M0 0 C39.39143533 -0.70808719 39.39143533 -0.70808719 49.8671875 8.671875 C56.98606895 16.36980422 56.51729794 25.21415215 56.30078125 35.125 C55.9751451 42.17910979 54.68746547 47.19689488 49.73046875 52.3671875 C47.55128999 54.35075494 45.33957926 56.21032184 43 58 C44.28379805 62.0989189 45.81299909 65.86361749 47.75 69.6953125 C48.2759375 70.74074219 48.801875 71.78617187 49.34375 72.86328125 C49.8903125 73.93964844 50.436875 75.01601562 51 76.125 C51.5465625 77.20910156 52.093125 78.29320312 52.65625 79.41015625 C53.67004695 81.42035657 54.68548842 83.42972899 55.703125 85.43798828 C56.13109375 86.28345215 56.5590625 87.12891602 57 88 C57.38671875 88.7101123 57.7734375 89.42022461 58.171875 90.15185547 C59 92 59 92 59 95 C55.86941914 96.56529043 52.55920992 96.26691314 49.125 96.3125 C48.04412109 96.35600586 48.04412109 96.35600586 46.94140625 96.40039062 C43.68268908 96.43939921 41.55648121 96.4351427 38.94091797 94.38989258 C36.60547132 91.51420865 35.45984935 88.7913685 34.125 85.3359375 C33.60951018 84.0364047 33.09388105 82.73692716 32.578125 81.4375 C31.78415884 79.4003759 30.99482402 77.36156163 30.20898438 75.32128906 C29.44248303 73.34227007 28.65957417 71.37034692 27.875 69.3984375 C27.41867187 68.21942871 26.96234375 67.04041992 26.4921875 65.82568359 C24.92632448 62.86048422 24.12784746 62.03114928 21 61 C19.66210908 62.10758388 19.66210908 62.10758388 19.93408203 64.91162109 C19.95841309 66.18602051 19.98274414 67.46041992 20.0078125 68.7734375 C20.0253335 70.1692635 20.04224133 71.56509732 20.05859375 72.9609375 C20.08954562 75.16883745 20.12502837 77.37635112 20.17138672 79.58398438 C20.21372945 81.70968454 20.23717044 83.83493074 20.2578125 85.9609375 C20.2798877 87.23759277 20.30196289 88.51424805 20.32470703 89.82958984 C20 93 20 93 18.71655273 94.91503906 C15.72884408 96.80344431 12.35682974 96.42941904 8.9375 96.375 C8.20466797 96.38660156 7.47183594 96.39820313 6.71679688 96.41015625 C4.58984375 96.3984375 4.58984375 96.3984375 1 96 C-1.5808494 92.1287259 -1.27344661 88.93273561 -1.24291992 84.4453125 C-1.24481827 83.57187195 -1.24671661 82.6984314 -1.24867249 81.79852295 C-1.25238143 78.90725773 -1.24167413 76.01624295 -1.23046875 73.125 C-1.22927687 71.11865264 -1.2288238 69.11230472 -1.2290802 67.10595703 C-1.22751511 62.89937857 -1.2192236 58.69288518 -1.20581055 54.48632812 C-1.18882072 49.0890575 -1.18499621 43.69188042 -1.18575573 38.29458618 C-1.18548404 34.15111393 -1.18000302 30.00766221 -1.17275429 25.86419678 C-1.16956784 23.87384191 -1.16760027 21.88348472 -1.16686058 19.89312744 C-1.16469678 17.11360701 -1.15595159 14.33418652 -1.14526367 11.5546875 C-1.14571686 10.72862 -1.14617004 9.90255249 -1.14663696 9.05145264 C-1.12819458 5.77780935 -1.04256693 3.12770079 0 0 Z M19 13 C18.91148471 15.59359322 18.88474055 18.16039691 18.90234375 20.75390625 C18.9037587 21.52935287 18.90517365 22.3047995 18.90663147 23.10374451 C18.91224655 25.59003494 18.92480154 28.0762366 18.9375 30.5625 C18.94251306 32.24413933 18.9470763 33.92578006 18.95117188 35.60742188 C18.96222087 39.73831566 18.97949555 43.86914276 19 48 C23.48772723 49.22652857 26.67022026 48.67145501 31 47 C33.89396771 44.69966669 34.82767735 43.51696795 36 40 C36.25257326 36.71272075 36.23124619 33.42098276 36.25 30.125 C36.270625 29.22652344 36.29125 28.32804687 36.3125 27.40234375 C36.3565176 20.68697162 36.3565176 20.68697162 33 15 C29.67061742 12.95918599 22.2437466 9.7562534 19 13 Z " fill="#F5F5F5" transform="translate(605,72)"/>
<path d="M0 0 C5.11976952 3.19724382 8.51347873 7.27315907 9.9140625 13.1953125 C10.30246553 18.1739331 10.59531145 23.42099658 8.9140625 28.1953125 C6.11717589 29.5937558 3.52349366 29.61796051 0.4140625 29.8828125 C-0.75125 29.98980469 -1.9165625 30.09679687 -3.1171875 30.20703125 C-6.0859375 30.1953125 -6.0859375 30.1953125 -8.0859375 28.1953125 C-8.68173438 24.63377116 -9.04336296 21.07074535 -9.42578125 17.48046875 C-9.85087199 14.28201409 -9.85087199 14.28201409 -11.37109375 12.27734375 C-13.56492317 10.89308236 -15.00229758 10.7944761 -17.5859375 10.8203125 C-18.74609375 10.80871094 -18.74609375 10.80871094 -19.9296875 10.796875 C-22.59650392 11.2896563 -23.44775067 12.0676674 -25.0859375 14.1953125 C-26.11622672 17.28618015 -26.22473953 19.4483993 -26.24707031 22.68896484 C-26.25667786 23.81378265 -26.2662854 24.93860046 -26.27618408 26.09750366 C-26.2825589 27.9209581 -26.2825589 27.9209581 -26.2890625 29.78125 C-26.29761261 31.65485703 -26.29761261 31.65485703 -26.30633545 33.5663147 C-26.31578848 36.21091353 -26.32268388 38.8553988 -26.32617188 41.5 C-26.3316545 44.88166336 -26.35568206 48.26292365 -26.38414383 51.64446068 C-26.40729442 54.87752646 -26.40922134 58.11061293 -26.4140625 61.34375 C-26.4264093 62.55533783 -26.4387561 63.76692566 -26.45147705 65.01522827 C-26.44847595 66.1463504 -26.44547485 67.27747253 -26.44238281 68.44287109 C-26.44602844 69.4353183 -26.44967407 70.4277655 -26.45343018 71.45028687 C-26.02016897 74.68657755 -24.99633592 76.56943317 -23.0859375 79.1953125 C-20.66441012 80.40607619 -19.33170663 80.27298964 -16.6484375 80.0703125 C-15.86597656 80.02648437 -15.08351563 79.98265625 -14.27734375 79.9375 C-11.93239749 79.34626251 -11.93239749 79.34626251 -10.375 77.25390625 C-8.58840165 73.01479563 -8.26879131 68.93918373 -7.8984375 64.3828125 C-7.81658203 63.49916016 -7.73472656 62.61550781 -7.65039062 61.70507812 C-7.45108394 59.53615245 -7.26699213 57.36583801 -7.0859375 55.1953125 C-8.1996875 55.2159375 -9.3134375 55.2365625 -10.4609375 55.2578125 C-14.0859375 55.1953125 -14.0859375 55.1953125 -16.0859375 54.1953125 C-16.13993486 52.73738366 -16.17872927 51.27888538 -16.2109375 49.8203125 C-16.23414063 49.00820312 -16.25734375 48.19609375 -16.28125 47.359375 C-16.0859375 45.1953125 -16.0859375 45.1953125 -14.0859375 43.1953125 C-11.57983398 42.95239258 -11.57983398 42.95239258 -8.45703125 42.96484375 C-7.34005859 42.96677734 -6.22308594 42.96871094 -5.07226562 42.97070312 C-3.3155957 42.98907227 -3.3155957 42.98907227 -1.5234375 43.0078125 C-0.34845703 43.00845703 0.82652344 43.00910156 2.03710938 43.00976562 C10.77394109 43.05519109 10.77394109 43.05519109 11.9140625 44.1953125 C12.02266504 45.65768277 12.06308419 47.12520535 12.07519531 48.59155273 C12.08480286 49.52599716 12.0944104 50.46044159 12.10430908 51.42320251 C12.10855896 52.43983475 12.11280884 53.45646698 12.1171875 54.50390625 C12.12288757 55.54096207 12.12858765 56.57801788 12.13446045 57.64649963 C12.14392598 59.84480768 12.15045057 62.04313002 12.15429688 64.24145508 C12.1640112 67.61499598 12.1950239 70.98793017 12.2265625 74.36132812 C12.23309122 76.49218386 12.2383422 78.62304398 12.2421875 80.75390625 C12.2545343 81.76851425 12.2668811 82.78312225 12.27960205 83.82847595 C12.27660095 84.76607254 12.27359985 85.70366913 12.27050781 86.66967773 C12.27597626 87.91091652 12.27597626 87.91091652 12.28155518 89.17723083 C12.16028259 89.84319778 12.03901001 90.50916473 11.9140625 91.1953125 C7.93905913 93.84531475 4.59285499 93.94461632 -0.0859375 93.1953125 C-2.1484375 91.1953125 -2.1484375 91.1953125 -3.0859375 89.1953125 C-6.06981269 89.63411768 -8.18238433 90.2478951 -10.8515625 91.703125 C-17.3935716 94.72129828 -24.69827091 94.25711845 -31.48828125 92.12890625 C-38.1724683 89.09664834 -42.38487001 86.05629135 -45.0859375 79.1953125 C-48.4293282 68.2230909 -48.58252975 57.36980005 -48.53198242 45.99951172 C-48.52343069 43.06797917 -48.55240401 40.13837476 -48.58398438 37.20703125 C-48.67668711 12.41876755 -48.67668711 12.41876755 -40.0078125 3.6640625 C-29.21523878 -4.58392067 -12.24969383 -6.019609 0 0 Z " fill="#F5F5F5" transform="translate(507.0859375,74.8046875)"/>
<path d="M0 0 C0.886875 -0.00257812 1.77375 -0.00515625 2.6875 -0.0078125 C3.615625 -0.00007813 4.54375 0.00765625 5.5 0.015625 C6.428125 0.00789063 7.35625 0.00015625 8.3125 -0.0078125 C9.6428125 -0.00394531 9.6428125 -0.00394531 11 0 C11.8146875 0.00225586 12.629375 0.00451172 13.46875 0.00683594 C15.5 0.265625 15.5 0.265625 17.5 2.265625 C18.23162842 4.64697266 18.23162842 4.64697266 18.91699219 7.6796875 C19.1777655 8.81688232 19.43853882 9.95407715 19.70721436 11.12573242 C19.98430237 12.36814697 20.26139038 13.61056152 20.546875 14.890625 C20.84287547 16.19326327 21.13953895 17.49575105 21.43682861 18.7980957 C22.22348896 22.252206 23.00141542 25.70822654 23.77746582 29.16473389 C24.54467981 32.57577404 25.31932379 35.98512259 26.09375 39.39453125 C27.00777033 43.41923068 27.9205534 47.44418617 28.82653809 51.47070312 C30.28327195 57.93990637 31.7609608 64.40308585 33.29101562 70.85546875 C33.57148743 72.04438721 33.85195923 73.23330566 34.14093018 74.45825195 C34.66684238 76.68078134 35.19803832 78.90206983 35.73553467 81.12182617 C36.86808993 85.92117701 37.8457497 90.29361711 37.5 95.265625 C34.34044583 96.84540208 30.96536183 96.45009584 27.5 96.453125 C26.76265625 96.46537109 26.0253125 96.47761719 25.265625 96.49023438 C23.34229942 96.49549895 21.41945737 96.38765947 19.5 96.265625 C16.68772949 93.45335449 16.8011976 90.42223253 16.375 86.640625 C16.08625 84.206875 15.7975 81.773125 15.5 79.265625 C8.9 79.265625 2.3 79.265625 -4.5 79.265625 C-4.768125 81.51375 -5.03625 83.761875 -5.3125 86.078125 C-6.07859532 92.50153959 -6.07859532 92.50153959 -7.56640625 95.19921875 C-10.74661572 96.95315246 -14.09491147 96.61488935 -17.625 96.515625 C-18.36621094 96.51046875 -19.10742188 96.5053125 -19.87109375 96.5 C-25.34569225 96.41993275 -25.34569225 96.41993275 -26.5 95.265625 C-26.02502663 85.572291 -23.67674091 76.20491985 -21.5625 66.765625 C-21.16461089 64.97388168 -20.76674344 63.18213354 -20.36889648 61.39038086 C-17.55950142 48.78914435 -14.6758088 36.20436213 -11.72189331 23.63623047 C-11.28298965 21.76710662 -10.84623503 19.89747681 -10.41165161 18.02734375 C-9.80402256 15.41874596 -9.18675398 12.81262954 -8.56640625 10.20703125 C-8.38654175 9.4287648 -8.20667725 8.65049835 -8.0213623 7.84864807 C-6.67542761 2.2718248 -5.92722389 0.01641241 0 0 Z M4.5 29.265625 C4.38930176 29.84940918 4.27860352 30.43319336 4.16455078 31.03466797 C3.65187533 33.73675034 3.13844086 36.43868797 2.625 39.140625 C2.45097656 40.0584375 2.27695312 40.97625 2.09765625 41.921875 C1.92363281 42.83710937 1.74960937 43.75234375 1.5703125 44.6953125 C1.39532227 45.61924805 1.22033203 46.54318359 1.04003906 47.49511719 C0.68294607 49.32707526 0.31013314 51.15604614 -0.07910156 52.98144531 C-0.35318848 54.27066895 -0.35318848 54.27066895 -0.6328125 55.5859375 C-0.7992627 56.34406738 -0.96571289 57.10219727 -1.13720703 57.88330078 C-1.65054963 60.8525958 -1.65054963 60.8525958 -1.5 66.265625 C3.12 66.265625 7.74 66.265625 12.5 66.265625 C11.82953901 58.71595488 10.76889635 51.29898213 9.5 43.828125 C9.32210937 42.75369141 9.14421875 41.67925781 8.9609375 40.57226562 C8.02649304 34.84777458 8.02649304 34.84777458 6.5 29.265625 C5.84 29.265625 5.18 29.265625 4.5 29.265625 Z " fill="#F5F5F5" transform="translate(414.5,71.734375)"/>
<path d="M0 0 C1.85117432 -0.04084717 1.85117432 -0.04084717 3.73974609 -0.08251953 C4.81135986 -0.11337646 5.88297363 -0.1442334 6.98706055 -0.17602539 C10.38903532 0.18702439 12.16029814 1.07646701 14.87646484 3.13232422 C16.23852539 4.87817383 16.23852539 4.87817383 17.26318359 6.78466797 C17.64410156 7.47882813 18.02501953 8.17298828 18.41748047 8.88818359 C18.98499023 9.9680957 18.98499023 9.9680957 19.56396484 11.06982422 C19.95390625 11.78589844 20.34384766 12.50197266 20.74560547 13.23974609 C22.51751525 16.50793524 24.22292975 19.80266601 25.87646484 23.13232422 C26.53646484 23.13232422 27.19646484 23.13232422 27.87646484 23.13232422 C28.19397705 22.50664551 28.51148926 21.8809668 28.83862305 21.23632812 C30.28070549 18.40581724 31.73465995 15.58157331 33.18896484 12.75732422 C33.68847656 11.77248047 34.18798828 10.78763672 34.70263672 9.77294922 C35.43256836 8.36142578 35.43256836 8.36142578 36.17724609 6.92138672 C36.62237549 6.0520752 37.06750488 5.18276367 37.52612305 4.28710938 C38.87646484 2.13232422 38.87646484 2.13232422 41.87646484 0.13232422 C44.20845872 0.05327358 46.54479106 0.04433653 48.87646484 0.13232422 C48.38752877 5.29769724 46.49195452 8.90607019 43.75146484 13.19482422 C42.93531644 14.53533484 42.12022767 15.87649113 41.30615234 17.21826172 C39.83374185 19.61485714 38.32459283 21.95707759 36.75927734 24.29638672 C31.09486268 33.3923555 30.90014545 41.8371084 31.08422852 52.27563477 C30.87646484 54.13232422 30.87646484 54.13232422 28.87646484 56.13232422 C26.31396484 56.31982422 26.31396484 56.31982422 23.87646484 56.13232422 C22.87646484 55.13232422 22.87646484 55.13232422 22.76635742 53.37329102 C22.76788818 52.61701416 22.76941895 51.8607373 22.77099609 51.08154297 C22.63651622 40.24183995 21.75081081 32.49337876 15.87646484 23.13232422 C15.18949567 21.87003093 14.51156706 20.60278826 13.84130859 19.33154297 C13.14572073 18.03541852 12.44911988 16.73983716 11.75146484 15.44482422 C11.42718506 14.8313916 11.10290527 14.21795898 10.76879883 13.5859375 C8.9406836 10.28458011 8.9406836 10.28458011 5.89990234 8.21044922 C3.73544143 8.1268793 1.77061027 8.25745771 -0.37353516 8.56982422 C-3.37118886 9.00196773 -6.26276105 9.16069978 -9.28662109 9.14819336 C-10.55280273 9.14295654 -11.81898438 9.13771973 -13.12353516 9.13232422 C-13.13162201 9.69164642 -13.13970886 10.25096863 -13.14804077 10.82723999 C-13.23391865 16.63457467 -13.33341405 22.44156137 -13.44091797 28.24853516 C-13.47926507 30.41742115 -13.5141077 32.58637199 -13.54541016 34.75537109 C-13.59093654 37.86823754 -13.64895089 40.98065528 -13.70947266 44.09326172 C-13.72679947 45.55425797 -13.72679947 45.55425797 -13.74447632 47.04476929 C-13.76434601 47.94555206 -13.7842157 48.84633484 -13.8046875 49.77441406 C-13.81801117 50.56939301 -13.83133484 51.36437195 -13.84506226 52.18344116 C-14.12353516 54.13232422 -14.12353516 54.13232422 -16.12353516 56.13232422 C-19.24853516 56.25732422 -19.24853516 56.25732422 -22.12353516 56.13232422 C-23.0586595 53.32695118 -23.24536423 51.65067058 -23.23706055 48.75268555 C-23.23698502 47.87199905 -23.23690948 46.99131256 -23.23683167 46.0839386 C-23.23167038 45.13697617 -23.22650909 44.19001373 -23.22119141 43.21435547 C-23.21977646 42.24197433 -23.21836151 41.2695932 -23.21690369 40.26774597 C-23.21130332 37.16007418 -23.19875078 34.05247426 -23.18603516 30.94482422 C-23.1810202 28.83870547 -23.17645729 26.73258559 -23.17236328 24.62646484 C-23.16133378 19.46172358 -23.14406891 14.29703609 -23.12353516 9.13232422 C-24.25533203 9.15552734 -25.38712891 9.17873047 -26.55322266 9.20263672 C-28.03498691 9.22139323 -29.51675827 9.23959356 -30.99853516 9.25732422 C-31.74490234 9.27408203 -32.49126953 9.29083984 -33.26025391 9.30810547 C-35.21547977 9.32572012 -37.17095537 9.23552611 -39.12353516 9.13232422 C-41.12353516 7.13232422 -41.12353516 7.13232422 -41.31103516 4.56982422 C-41.12353516 2.13232422 -41.12353516 2.13232422 -40.12353516 1.13232422 C-37.62280013 0.97167047 -35.14682599 0.87258837 -32.64306641 0.81591797 C-31.87862717 0.79513687 -31.11418793 0.77435577 -30.32658386 0.75294495 C-28.69654132 0.70956694 -27.06643483 0.66853957 -25.4362793 0.62963867 C-22.99137541 0.57114815 -20.54674024 0.50576235 -18.10205078 0.43896484 C-14.17963978 0.33438389 -10.25716699 0.25203078 -6.33404541 0.17938232 C-4.2219766 0.13441987 -2.11140179 0.06889386 0 0 Z " fill="#F5F5F5" transform="translate(618.12353515625,188.86767578125)"/>
<path d="M0 0 C1.06412109 0.02771484 2.12824219 0.05542969 3.22460938 0.08398438 C9.94760708 0.37881627 14.58444429 1.35250439 20.3125 4.9375 C23.89142487 9.06702869 25.12133671 12.48934615 25.3125 17.9375 C24.35784081 23.47452328 22.63410885 26.35372681 18.3125 29.9375 C17.3225 30.2675 16.3325 30.5975 15.3125 30.9375 C16.46118382 36.80855063 19.01672048 40.71901625 22.55859375 45.5078125 C24.31257761 47.93760751 25.95023676 50.26553674 27.3125 52.9375 C26.9825 53.9275 26.6525 54.9175 26.3125 55.9375 C23.625 56.25 23.625 56.25 20.3125 55.9375 C16.42426357 52.7151005 14.22913473 49.21642647 11.87451172 44.85742188 C8.32389956 37.95491438 8.32389956 37.95491438 2.21875 33.671875 C-0.54475255 33.45820212 -2.94784903 33.6149781 -5.6875 33.9375 C-5.67702637 34.53288574 -5.66655273 35.12827148 -5.65576172 35.74169922 C-5.61426051 38.43192343 -5.58819296 41.12208037 -5.5625 43.8125 C-5.54574219 44.74964844 -5.52898438 45.68679687 -5.51171875 46.65234375 C-5.50527344 47.54824219 -5.49882813 48.44414062 -5.4921875 49.3671875 C-5.48171387 50.19460449 -5.47124023 51.02202148 -5.46044922 51.87451172 C-5.6875 53.9375 -5.6875 53.9375 -7.6875 55.9375 C-10.1875 56.1875 -10.1875 56.1875 -12.6875 55.9375 C-15.2084627 53.4165373 -14.94414898 52.56506777 -14.9621582 49.07641602 C-14.97169022 48.0651918 -14.98122223 47.05396759 -14.99104309 46.01210022 C-14.99013168 44.91627121 -14.98922028 43.8204422 -14.98828125 42.69140625 C-14.99256638 41.56935287 -14.9968515 40.4472995 -15.00126648 39.29124451 C-15.00701765 36.91479162 -15.00750428 34.53832113 -15.00317383 32.16186523 C-15.00001596 28.51841287 -15.02345694 24.87577363 -15.04882812 21.23242188 C-15.05110117 18.92708436 -15.05180459 16.62174466 -15.05078125 14.31640625 C-15.059991 13.22260147 -15.06920074 12.12879669 -15.07868958 11.00184631 C-15.06934639 9.48028175 -15.06934639 9.48028175 -15.05981445 7.92797852 C-15.06044388 7.03466324 -15.0610733 6.14134796 -15.0617218 5.22096252 C-13.81279906 -2.39983418 -5.84322121 -0.2954633 0 0 Z M-5.6875 8.9375 C-5.92428716 11.62985776 -6.10948025 14.30248156 -6.25 17 C-6.29318359 17.75861328 -6.33636719 18.51722656 -6.38085938 19.29882812 C-6.48723633 21.17815438 -6.58789934 23.05780244 -6.6875 24.9375 C-3.2323078 27.08353064 -0.75785271 27.09872867 3.25 26.75 C4.26964844 26.67394531 5.28929687 26.59789062 6.33984375 26.51953125 C9.61454479 25.87836114 11.62503849 24.89584152 14.3125 22.9375 C16.65799674 19.41925489 16.89241403 18.07974306 16.3125 13.9375 C14.31589144 11.31670896 12.69254136 9.3091385 9.41772461 8.42724609 C7.28805606 8.18727633 5.20517459 8.09332985 3.0625 8.0625 C2.3303125 8.02898437 1.598125 7.99546875 0.84375 7.9609375 C-2.70994958 7.50736111 -2.70994958 7.50736111 -5.6875 8.9375 Z " fill="#F5F5F5" transform="translate(522.6875,189.0625)"/>
<path d="M0 0 C3.26196289 0.13867188 3.26196289 0.13867188 6.26196289 2.13867188 C6.44946289 5.26367187 6.44946289 5.26367187 6.26196289 8.13867188 C3.44372097 9.54779283 1.08945007 9.2505074 -2.05834961 9.23632812 C-3.31518555 9.23310547 -4.57202148 9.22988281 -5.86694336 9.2265625 C-7.1856543 9.21818359 -8.50436523 9.20980469 -9.86303711 9.20117188 C-11.20287922 9.19615677 -12.54272311 9.19159388 -13.88256836 9.1875 C-17.16774367 9.17568282 -20.45289592 9.15774689 -23.73803711 9.13867188 C-23.73803711 13.75867188 -23.73803711 18.37867188 -23.73803711 23.13867188 C-22.3290918 23.12707031 -20.92014648 23.11546875 -19.46850586 23.10351562 C-17.62085093 23.09413667 -15.77319458 23.08503658 -13.92553711 23.07617188 C-12.99676758 23.06779297 -12.06799805 23.05941406 -11.11108398 23.05078125 C-10.2184082 23.04755859 -9.32573242 23.04433594 -8.40600586 23.04101562 C-7.1727356 23.0331604 -7.1727356 23.0331604 -5.91455078 23.02514648 C-3.73803711 23.13867188 -3.73803711 23.13867188 -0.73803711 24.13867188 C-0.61303711 27.01367188 -0.61303711 27.01367188 -0.73803711 30.13867188 C-3.17718203 32.5778168 -3.95250142 32.4252971 -7.30834961 32.55273438 C-8.65219727 32.61074219 -8.65219727 32.61074219 -10.02319336 32.66992188 C-10.9603418 32.70085937 -11.89749023 32.73179687 -12.86303711 32.76367188 C-13.80791992 32.80234375 -14.75280273 32.84101563 -15.72631836 32.88085938 C-18.06323061 32.97528007 -20.40060741 33.05807085 -22.73803711 33.13867188 C-22.73803711 37.75867188 -22.73803711 42.37867188 -22.73803711 47.13867188 C-19.99233398 47.10386719 -19.99233398 47.10386719 -17.19116211 47.06835938 C-14.79012452 47.04960127 -12.38908252 47.03140111 -9.98803711 47.01367188 C-8.78147461 46.99691406 -7.57491211 46.98015625 -6.33178711 46.96289062 C-5.17163086 46.95644531 -4.01147461 46.95 -2.81616211 46.94335938 C-1.74785156 46.93288574 -0.67954102 46.92241211 0.42114258 46.91162109 C3.24175394 47.13705669 4.86983752 47.68018193 7.26196289 49.13867188 C7.26196289 51.11867187 7.26196289 53.09867188 7.26196289 55.13867188 C4.1726303 56.68333817 0.90747164 56.32247137 -2.48413086 56.34179688 C-3.63450584 56.35034698 -3.63450584 56.35034698 -4.80812073 56.35906982 C-6.43131123 56.36852047 -8.05452093 56.37505407 -9.67773438 56.37890625 C-12.1623674 56.38862039 -14.64617614 56.41964534 -17.13061523 56.45117188 C-18.70678219 56.45770114 -20.28295507 56.46295191 -21.85913086 56.46679688 C-22.60295517 56.47914368 -23.34677948 56.49149048 -24.11314392 56.50421143 C-29.25876535 56.48196138 -29.25876535 56.48196138 -31.43586731 54.92256165 C-33.15174465 52.57191887 -33.10654249 51.13638782 -33.09448242 48.23999023 C-33.09748352 47.24563461 -33.10048462 46.25127899 -33.10357666 45.22679138 C-33.09122986 44.15486038 -33.07888306 43.08292938 -33.06616211 41.97851562 C-33.06428894 40.87770157 -33.06241577 39.77688751 -33.06048584 38.64271545 C-33.05376099 36.31508354 -33.03983802 33.98746301 -33.01928711 31.65991211 C-32.98813127 28.08697064 -32.97831678 24.51447009 -32.97241211 20.94140625 C-32.96324237 18.6829373 -32.95286669 16.42447286 -32.94116211 14.16601562 C-32.93691223 13.09206039 -32.93266235 12.01810516 -32.92828369 10.91160583 C-32.91867615 9.92040237 -32.9090686 8.92919891 -32.89916992 7.90795898 C-32.89234192 7.03320419 -32.88551392 6.1584494 -32.878479 5.25718689 C-32.73803711 3.13867188 -32.73803711 3.13867188 -31.73803711 1.13867188 C-27.21727899 0.96992323 -22.69641995 0.80404277 -18.17553711 0.63867188 C-16.8987207 0.59097656 -15.6219043 0.54328125 -14.30639648 0.49414062 C-12.4453125 0.42646484 -12.4453125 0.42646484 -10.54663086 0.35742188 C-9.4102417 0.31552734 -8.27385254 0.27363281 -7.10302734 0.23046875 C-4.73498655 0.16586864 -2.36729337 0.08782069 0 0 Z " fill="#F5F5F5" transform="translate(383.738037109375,188.861328125)"/>
<path d="M0 0 C2.88173482 1.77293104 4.93503174 3.47032022 6.94921875 6.19921875 C7.38671875 9.38671875 7.38671875 9.38671875 6.94921875 12.19921875 C6.28921875 12.85921875 5.62921875 13.51921875 4.94921875 14.19921875 C2.57421875 14.13671875 2.57421875 14.13671875 -0.05078125 13.19921875 C-1.42946406 11.56986634 -2.76352218 9.90172268 -4.05078125 8.19921875 C-8.46109145 5.43326989 -13.00631872 5.5554182 -18.05078125 6.19921875 C-21.27916898 7.52938039 -21.27916898 7.52938039 -23.05078125 10.19921875 C-23.46849929 13.8672169 -23.46849929 13.8672169 -23.05078125 17.19921875 C-18.97469974 18.79280542 -14.9557136 20.27918236 -10.7265625 21.41015625 C-10.00791016 21.60351562 -9.28925781 21.796875 -8.54882812 21.99609375 C-7.08274044 22.38390604 -5.61388786 22.76140232 -4.14257812 23.12890625 C0.79459416 24.48228801 3.58348228 26.14488993 6.94921875 30.19921875 C8.80652275 33.91382675 8.39204781 38.14514993 7.94921875 42.19921875 C5.5972838 47.08400671 2.64145088 49.55983818 -2.05078125 52.19921875 C-9.14053833 54.52650857 -18.44918079 54.32957173 -25.26171875 51.2421875 C-28.60980905 49.2903532 -31.62569047 47.25822383 -34.05078125 44.19921875 C-34.61328125 40.94921875 -34.61328125 40.94921875 -34.05078125 38.19921875 C-33.39078125 37.53921875 -32.73078125 36.87921875 -32.05078125 36.19921875 C-29.25212381 36.19921875 -27.60283375 36.71097131 -25.49609375 38.57421875 C-24.46912808 39.63694939 -23.46263154 40.71994924 -22.48046875 41.82421875 C-19.53972428 44.65247573 -16.03246634 44.39151274 -12.17578125 44.44921875 C-11.14710938 44.475 -10.1184375 44.50078125 -9.05859375 44.52734375 C-5.6204293 44.15227126 -3.77289348 43.309842 -1.05078125 41.19921875 C-0.21744792 38.19921875 -0.21744792 38.19921875 -1.05078125 35.19921875 C-6.06810165 31.25703844 -12.6974177 30.16323895 -18.74609375 28.53710938 C-24.49793831 26.9102817 -29.24933192 25.3732009 -32.36328125 19.88671875 C-33.680721 14.736727 -33.69212673 10.79570091 -31.17578125 6.07421875 C-23.99009552 -4.30061964 -10.63592306 -5.44207913 0 0 Z " fill="#F4F4F4" transform="translate(332.05078125,191.80078125)"/>
<path d="M0 0 C2.375 0.75 2.375 0.75 3.375 1.75 C3.49826856 4.56246954 3.56115784 7.35414469 3.5859375 10.16796875 C3.61402133 11.91472267 3.64268588 13.66146733 3.671875 15.40820312 C3.71304348 18.16869703 3.74991877 20.92902094 3.77636719 23.68969727 C3.80407583 26.34948797 3.84996506 29.00848601 3.8984375 31.66796875 C3.90169037 32.48694138 3.90494324 33.305914 3.90829468 34.14970398 C4.01281991 39.05295391 4.63227936 42.51709787 7.375 46.75 C11.65748987 49.09517303 15.5132216 48.84313846 20.2265625 48.4296875 C23.1591635 47.50191918 24.39164116 46.08559062 26.375 43.75 C29.24107123 35.15347621 28.55580207 25.55662218 28.375 16.625 C28.32419894 14.03922582 28.28205877 11.45326196 28.25 8.8671875 C28.22679687 7.73909668 28.20359375 6.61100586 28.1796875 5.44873047 C28.375 2.75 28.375 2.75 30.375 0.75 C32.875 0.5 32.875 0.5 35.375 0.75 C37.87831221 3.25331221 37.63121149 4.79098561 37.67854309 8.2088623 C37.67763168 8.95462524 37.67672028 9.70038818 37.67578125 10.46875 C37.68006638 11.24126099 37.6843515 12.01377197 37.68876648 12.80969238 C37.69451826 14.45059226 37.69500381 16.09151763 37.69067383 17.73242188 C37.68754702 20.21270046 37.71084397 22.69174695 37.73632812 25.171875 C37.81823979 44.82968181 37.81823979 44.82968181 32.6887207 50.66992188 C26.62515368 56.34339386 20.7255864 57.20930439 12.60546875 57.0625 C6.46838187 56.46882775 2.93429187 54.20759893 -1.5 50.0625 C-6.80375436 41.7948829 -5.96691276 31.76322856 -5.94067383 22.28222656 C-5.93747967 19.85958211 -5.96115488 17.43812207 -5.98632812 15.015625 C-5.98859826 13.4713557 -5.98930595 11.92708313 -5.98828125 10.3828125 C-5.997491 9.66094757 -6.00670074 8.93908264 -6.01618958 8.19534302 C-5.98886729 5.25005761 -5.95260883 3.23049295 -4.26635742 0.75732422 C-2.625 -0.25 -2.625 -0.25 0 0 Z " fill="#F6F6F6" transform="translate(457.625,188.25)"/>
<path d="M0 0 C3.87614265 2.29968212 6.81356223 4.84268076 9.625 8.375 C9.56662863 11.00171187 9.51393674 12.48606326 7.625 14.375 C4.875 14.8125 4.875 14.8125 1.625 14.375 C-0.38060023 12.55469979 -1.75658361 10.57784453 -3.375 8.375 C-7.09475195 6.51512403 -11.3153663 6.94405427 -15.375 7.375 C-20.23086621 9.53316276 -22.5185069 12.36854274 -24.62109375 17.1015625 C-26.9439963 24.10637743 -26.79395276 30.4637064 -24.375 37.375 C-22.16230595 41.35784929 -20.61638748 43.70738086 -16.375 45.375 C-11.86507872 45.93965681 -7.72122654 45.93105009 -3.5 44.1875 C-1.23927395 42.37996191 -1.23927395 42.37996191 0.6875 39.75 C2.625 37.375 2.625 37.375 4.625 36.4375 C7.12411402 36.35940269 8.5115327 37.09182342 10.625 38.375 C10.30164256 43.71039772 7.39411231 46.886918 3.625 50.375 C-1.77210073 54.5700192 -7.4216739 55.06091418 -14.12109375 54.8125 C-20.27418678 53.98519337 -25.0999088 51.94807612 -29.25390625 47.25 C-35.4456913 38.41738133 -36.24958393 29.98877787 -35.375 19.375 C-33.72186012 11.94927436 -31.14764253 6.46194097 -24.60546875 2.23046875 C-17.16550058 -2.20218597 -8.13049947 -3.79003941 0 0 Z " fill="#F5F5F5" transform="translate(432.375,190.625)"/>
<path d="M0 0 C5.56818182 0.56818182 5.56818182 0.56818182 7 2 C7.10365935 3.54391268 7.13851476 5.09251865 7.14526367 6.63989258 C7.15483345 8.12196953 7.15483345 8.12196953 7.16459656 9.63398743 C7.16570938 10.70996689 7.1668222 11.78594635 7.16796875 12.89453125 C7.17129715 13.99343185 7.17462555 15.09233246 7.17805481 16.22453308 C7.18312971 18.55569031 7.18546296 20.88685483 7.18530273 23.21801758 C7.18748426 26.78674323 7.20562053 30.35515745 7.22460938 33.92382812 C7.22754415 36.18489477 7.22952838 38.44596289 7.23046875 40.70703125 C7.23765427 41.77693802 7.24483978 42.84684479 7.25224304 43.94917297 C7.24916641 44.94668076 7.24608978 45.94418854 7.24291992 46.97192383 C7.24434494 47.84826981 7.24576996 48.72461578 7.24723816 49.6275177 C6.98212045 52.17157109 6.28174136 53.80600022 5 56 C2.69 55.67 0.38 55.34 -2 55 C-2.05057965 47.48863592 -2.08568257 39.97731551 -2.10986328 32.46582031 C-2.11994038 29.90883747 -2.13360226 27.35186621 -2.15087891 24.79492188 C-2.17505217 21.12627308 -2.18646585 17.45777621 -2.1953125 13.7890625 C-2.20563507 12.64007477 -2.21595764 11.49108704 -2.22659302 10.30728149 C-2.22674408 9.2463327 -2.22689514 8.18538391 -2.22705078 7.09228516 C-2.231492 6.15518707 -2.23593323 5.21808899 -2.24050903 4.25259399 C-2 2 -2 2 0 0 Z " fill="#F5F5F5" transform="translate(562,189)"/>
<path d="M0 0 C3.56586151 1.57973961 6.86485095 3.47258391 10.18359375 5.515625 C10.86808594 5.92361328 11.55257812 6.33160156 12.2578125 6.75195312 C17.30091451 9.81276652 17.30091451 9.81276652 18.43359375 12.078125 C15.55115952 13.78933266 12.6508551 15.46764372 9.74609375 17.140625 C8.92947266 17.62595703 8.11285156 18.11128906 7.27148438 18.61132812 C6.47548828 19.06572266 5.67949219 19.52011719 4.859375 19.98828125 C3.76749878 20.62455444 3.76749878 20.62455444 2.65356445 21.27368164 C-0.79146513 22.52204549 -3.27039039 21.68325783 -6.51098633 20.17016602 C-7.11322021 19.81108154 -7.7154541 19.45199707 -8.3359375 19.08203125 C-8.99658203 18.68822266 -9.65722656 18.29441406 -10.33789062 17.88867188 C-11.01142578 17.47681641 -11.68496094 17.06496094 -12.37890625 16.640625 C-13.07177734 16.23263672 -13.76464844 15.82464844 -14.47851562 15.40429688 C-16.21296078 14.35679453 -17.89518539 13.22380471 -19.56640625 12.078125 C-19.56640625 11.418125 -19.56640625 10.758125 -19.56640625 10.078125 C-17.01965922 8.08211674 -14.16345532 6.53221116 -11.37890625 4.890625 C-10.60998047 4.41431641 -9.84105469 3.93800781 -9.04882812 3.44726562 C-3.4119813 0.10386549 -3.4119813 0.10386549 0 0 Z " fill="#2C62ED" transform="translate(165.56640625,275.921875)"/>
<path d="M0 0 C2.31 0 4.62 0 7 0 C6.01 0.66 5.02 1.32 4 2 C3.34 1.67 2.68 1.34 2 1 C2.33 50.83 2.66 100.66 3 152 C4.98 152.33 6.96 152.66 9 153 C11.375 154.4375 11.375 154.4375 13 156 C13 156.66 13 157.32 13 158 C8.02993369 156.66656758 3.20090319 155.18801968 0 151 C-1.05382445 146.21900042 -0.88475856 141.44032257 -0.79467773 136.57104492 C-0.79270241 135.08264255 -0.79381313 133.59423337 -0.79777527 132.10583496 C-0.7997827 128.07053673 -0.75864821 124.0366968 -0.70975757 120.00173736 C-0.66597952 115.78307868 -0.66188502 111.56438605 -0.65357971 107.34553528 C-0.63182817 99.35907892 -0.57439273 91.3732938 -0.50413328 83.38713294 C-0.42587427 74.29417737 -0.3873995 65.20118963 -0.35226524 56.10798109 C-0.27910929 37.40494025 -0.15599569 18.7025241 0 0 Z " fill="#3D62CA" transform="translate(107,59)"/>
<path d="M0 0 C6.6 0 13.2 0 20 0 C20 16.17 20 32.34 20 49 C28.91 49 37.82 49 47 49 C47 49.33 47 49.66 47 50 C43.03069011 50.02465881 39.06140966 50.04284023 35.09204102 50.05493164 C33.74079614 50.05997057 32.38955674 50.06680177 31.03833008 50.07543945 C29.09979566 50.08752419 27.161222 50.09269828 25.22265625 50.09765625 C23.47094116 50.10551147 23.47094116 50.10551147 21.68383789 50.11352539 C19 50 19 50 18 49 C17.87767356 47.52749355 17.8222544 46.04934289 17.79467773 44.57202148 C17.77473251 43.63112167 17.75478729 42.69022186 17.73423767 41.72080994 C17.71752518 40.69790359 17.70081268 39.67499725 17.68359375 38.62109375 C17.66281265 37.57929459 17.64203156 36.53749542 17.62062073 35.46412659 C17.55500943 32.12198753 17.49618669 28.77976715 17.4375 25.4375 C17.39432578 23.17772582 17.35071186 20.91795999 17.30664062 18.65820312 C17.19931633 13.10555579 17.09757188 7.55282679 17 2 C16.34 2 15.68 2 15 2 C15 2.99 15 3.98 15 5 C12.36 5.33 9.72 5.66 7 6 C6.67 5.01 6.34 4.02 6 3 C5.01 3 4.02 3 3 3 C2.97494385 4.18029785 2.9498877 5.3605957 2.92407227 6.57666016 C2.82963494 10.97129475 2.729504 15.36578464 2.62768555 19.76025391 C2.58447373 21.65930792 2.5427894 23.55839734 2.50268555 25.45751953 C2.4446485 28.19314223 2.38105173 30.92858894 2.31640625 33.6640625 C2.29969376 34.50804596 2.28298126 35.35202942 2.26576233 36.22158813 C2.15728712 40.57456334 1.85188712 44.71327977 1 49 C0.67 49 0.34 49 0 49 C0 32.83 0 16.66 0 0 Z " fill="#355FD6" transform="translate(155,37)"/>
<path d="M0 0 C12.21 0 24.42 0 37 0 C37 6.6 37 13.2 37 20 C31.39 20 25.78 20 20 20 C20 19.67 20 19.34 20 19 C24.95 19 29.9 19 35 19 C35 13.06 35 7.12 35 1 C23.78 1 12.56 1 1 1 C1 50.17 1 99.34 1 150 C1.66 150 2.32 150 3 150 C4.625 152.5 4.625 152.5 6 155 C1.125 153.125 1.125 153.125 0 152 C-0.09666937 150.03838396 -0.12187097 148.07323355 -0.12025452 146.10923767 C-0.12162918 144.82891159 -0.12300385 143.54858551 -0.12442017 142.22946167 C-0.12088055 140.79742409 -0.11724573 139.36538674 -0.11352539 137.93334961 C-0.11324353 136.43568422 -0.11340124 134.9380187 -0.1139679 133.44035339 C-0.11425591 129.36201828 -0.10835864 125.28371233 -0.10139394 121.20538402 C-0.09516095 116.94792372 -0.09455665 112.69046282 -0.09336853 108.43299866 C-0.09025505 100.36526813 -0.08204144 92.29755109 -0.07201904 84.22982651 C-0.06085842 75.04739221 -0.05534758 65.86495728 -0.05032361 56.68251789 C-0.03985884 37.78833605 -0.02151315 18.89417271 0 0 Z " fill="#325CCF" transform="translate(60,86)"/>
<path d="M0 0 C1.16781006 0.00523682 2.33562012 0.01047363 3.53881836 0.01586914 C4.79887695 0.0190918 6.05893555 0.02231445 7.35717773 0.02563477 C8.6976732 0.03399136 10.03816799 0.04245632 11.37866211 0.05102539 C12.72306153 0.05603879 14.06746271 0.06060197 15.41186523 0.06469727 C18.71334151 0.07653051 22.01473014 0.09301568 25.31616211 0.11352539 C25.31616211 0.44352539 25.31616211 0.77352539 25.31616211 1.11352539 C16.40616211 1.11352539 7.49616211 1.11352539 -1.68383789 1.11352539 C-1.77910604 13.1360883 -1.83208941 25.15680244 -1.81080818 37.17973518 C-1.802613 42.7626663 -1.81288749 48.34428626 -1.86547852 53.92700195 C-1.91556089 59.3157329 -1.91698709 64.70248972 -1.88479233 70.0913353 C-1.88104337 72.14624151 -1.89477687 74.20125692 -1.92633438 76.25592422 C-2.61789281 87.23138461 -2.61789281 87.23138461 1.62237549 96.73797607 C4.18023722 98.29353541 6.43265149 99.33845605 9.31616211 100.11352539 C7.83116211 100.60852539 7.83116211 100.60852539 6.31616211 101.11352539 C4.64196773 100.12617999 2.97564359 99.12540434 1.31616211 98.11352539 C-0.00383789 98.11352539 -1.32383789 98.11352539 -2.68383789 98.11352539 C-3.58773469 92.720482 -3.82680253 87.53547344 -3.81323242 82.07299805 C-3.81498474 81.1957608 -3.81673706 80.31852356 -3.81854248 79.41470337 C-3.822919 76.53564435 -3.82003939 73.65664746 -3.81665039 70.77758789 C-3.81732427 68.77216581 -3.818295 66.76674382 -3.81954956 64.76132202 C-3.82102052 60.5702842 -3.81888995 56.37926775 -3.81420898 52.18823242 C-3.80848991 46.80433785 -3.81180821 41.4204929 -3.81778145 36.03660011 C-3.82138446 31.90180076 -3.82025006 27.76701329 -3.81765366 23.63221359 C-3.81698481 21.64578623 -3.81781134 19.65935779 -3.82013321 17.67293167 C-3.82265785 14.9078202 -3.81882284 12.14279086 -3.81323242 9.37768555 C-3.81525665 8.55071167 -3.81728088 7.72373779 -3.81936646 6.8717041 C-3.79408439 0.16048842 -3.79408439 0.16048842 0 0 Z " fill="#305DD2" transform="translate(128.683837890625,104.886474609375)"/>
<path d="M0 0 C1.32 0 2.64 0 4 0 C4 0.66 4 1.32 4 2 C3.34 2 2.68 2 2 2 C2.33 27.08 2.66 52.16 3 78 C2.01 77.67 1.02 77.34 0 77 C0 51.59 0 26.18 0 0 Z " fill="#385FCA" transform="translate(155,106)"/>
<path d="M0 0 C0.66 0 1.32 0 2 0 C2 16.17 2 32.34 2 49 C10.91 49 19.82 49 29 49 C29 49.33 29 49.66 29 50 C25.03069011 50.02465881 21.06140966 50.04284023 17.09204102 50.05493164 C15.74079614 50.05997057 14.38955674 50.06680177 13.03833008 50.07543945 C11.09979566 50.08752419 9.161222 50.09269828 7.22265625 50.09765625 C5.47094116 50.10551147 5.47094116 50.10551147 3.68383789 50.11352539 C1 50 1 50 0 49 C-0.12761671 47.50231575 -0.18827989 45.99884488 -0.22119141 44.49609375 C-0.24436432 43.53840088 -0.26753723 42.58070801 -0.29141235 41.59399414 C-0.3112619 40.55235107 -0.33111145 39.51070801 -0.3515625 38.4375 C-0.37471527 37.37587646 -0.39786804 36.31425293 -0.42172241 35.22045898 C-0.46943862 32.97091587 -0.51466312 30.72131877 -0.55761719 28.47167969 C-0.62471326 25.01477345 -0.70244335 21.55821932 -0.78125 18.1015625 C-0.82616263 15.92188813 -0.87045442 13.74220086 -0.9140625 11.5625 C-0.93796051 10.52085693 -0.96185852 9.47921387 -0.98648071 8.40600586 C-1.0117836 6.96946655 -1.0117836 6.96946655 -1.03759766 5.50390625 C-1.05456696 4.65642822 -1.07153625 3.8089502 -1.08901978 2.93579102 C-1 1 -1 1 0 0 Z " fill="#355AC2" transform="translate(173,37)"/>
<path d="M0 0 C0.33 0 0.66 0 1 0 C0.99032196 1.10167511 0.98064392 2.20335022 0.97067261 3.33840942 C0.88594198 13.72635588 0.85381079 24.11331462 0.87302971 34.50160408 C0.88122391 39.84242167 0.87095944 45.18186862 0.81835938 50.52246094 C0.76826546 55.67780104 0.76685666 60.83107789 0.79904556 65.98653793 C0.80279365 67.95213133 0.78906813 69.91783901 0.75750351 71.88318253 C0.10348334 82.46435349 0.10348334 82.46435349 4.30621338 91.57073975 C6.85689701 93.121034 9.13498067 94.18882253 12 95 C10.515 95.495 10.515 95.495 9 96 C7.32580562 95.0126546 5.65948148 94.01187895 4 93 C2.68 93 1.36 93 0 93 C0 62.31 0 31.62 0 0 Z " fill="#4261B6" transform="translate(126,110)"/>
<path d="M0 0 C3.86659678 1.24746349 7.09927276 3.2174759 10.546875 5.33984375 C11.23136719 5.74783203 11.91585937 6.15582031 12.62109375 6.57617188 C17.66419576 9.63698527 17.66419576 9.63698527 18.796875 11.90234375 C14.506875 14.21234375 10.216875 16.52234375 5.796875 18.90234375 C6.456875 16.92234375 7.116875 14.94234375 7.796875 12.90234375 C9.446875 12.90234375 11.096875 12.90234375 12.796875 12.90234375 C12.796875 12.24234375 12.796875 11.58234375 12.796875 10.90234375 C9.60925135 8.77726131 7.53175277 8.40032745 3.796875 7.90234375 C3.796875 7.24234375 3.796875 6.58234375 3.796875 5.90234375 C3.054375 5.79921875 2.311875 5.69609375 1.546875 5.58984375 C-1.37326518 4.85980871 -2.93500054 3.83444977 -5.203125 1.90234375 C-2.203125 -0.09765625 -2.203125 -0.09765625 0 0 Z " fill="#335FE4" transform="translate(165.203125,276.09765625)"/>
<path d="M0 0 C0 0.66 0 1.32 0 2 C-2 4 -2 4 -4 5 C-4 5.66 -4 6.32 -4 7 C-4.66 7 -5.32 7 -6 7 C-4.99425024 10.01565163 -4.99425024 10.01565163 -3 13 C1.21947733 14.67186838 5.51868799 15.34419824 10 16 C8.3125 17.5625 8.3125 17.5625 6 19 C1.07972824 18.69693978 -2.7147027 16.06823443 -6.8125 13.5625 C-7.50537109 13.15451172 -8.19824219 12.74652344 -8.91210938 12.32617188 C-10.64655453 11.27866953 -12.32877914 10.14567971 -14 9 C-14 8.34 -14 7.68 -14 7 C-11.4453125 5.2734375 -11.4453125 5.2734375 -8.125 3.375 C-7.03445312 2.74335938 -5.94390625 2.11171875 -4.8203125 1.4609375 C-2 0 -2 0 0 0 Z " fill="#2E5DD8" transform="translate(160,279)"/>
<path d="M0 0 C0.33 0 0.66 0 1 0 C1.33 14.19 1.66 28.38 2 43 C3.98 43.33 5.96 43.66 8 44 C10.375 45.4375 10.375 45.4375 12 47 C12 47.66 12 48.32 12 49 C7.33845593 47.66813027 3.63239993 46.25767334 0 43 C-0.84524431 39.73322098 -0.69887903 36.55816789 -0.5859375 33.203125 C-0.57744781 32.25435486 -0.56895813 31.30558472 -0.56021118 30.32806396 C-0.526652 27.30088221 -0.45136782 24.27637496 -0.375 21.25 C-0.34490366 19.19665308 -0.31752728 17.14326437 -0.29296875 15.08984375 C-0.2268522 10.05886702 -0.12331254 5.02988674 0 0 Z " fill="#3161DB" transform="translate(108,168)"/>
<path d="M0 0 C2.3125 -0.1875 2.3125 -0.1875 5 0 C5.4434375 0.4640625 5.886875 0.928125 6.34375 1.40625 C8.47348658 3.45561916 10.3530535 3.91446914 13.1875 4.6875 C14.08855469 4.93886719 14.98960938 5.19023437 15.91796875 5.44921875 C16.60503906 5.63097656 17.29210937 5.81273437 18 6 C18 6.99 18 7.98 18 9 C18.66 9 19.32 9 20 9 C20 9.66 20 10.32 20 11 C21.32 10.67 22.64 10.34 24 10 C24 10.66 24 11.32 24 12 C25.32 12.66 26.64 13.32 28 14 C25.65414343 14.82950114 24.45481731 15.17703867 22.09643555 14.2590332 C21.449729 13.86031006 20.80302246 13.46158691 20.13671875 13.05078125 C19.41419922 12.61443359 18.69167969 12.17808594 17.94726562 11.72851562 C17.20154297 11.26123047 16.45582031 10.79394531 15.6875 10.3125 C14.21243575 9.41243885 12.73717741 8.51269571 11.26171875 7.61328125 C10.55063965 7.1745166 9.83956055 6.73575195 9.10693359 6.28369141 C6.1074816 4.45621533 3.05906546 2.72552305 0 1 C0 0.67 0 0.34 0 0 Z " fill="#2A60DA" transform="translate(92,256)"/>
<path d="M0 0 C0.33 0 0.66 0 1 0 C0.9779248 0.9379541 0.95584961 1.8759082 0.93310547 2.84228516 C0.87461841 6.34414382 0.86128592 9.84028448 0.87792969 13.34228516 C0.87599018 14.85348208 0.8563814 16.36476851 0.81835938 17.87548828 C0.70246858 22.75899772 0.75260113 27.25564235 2 32 C4.97342319 35.05163797 7.99307073 36.62549301 12 38 C10.515 38.495 10.515 38.495 9 39 C7.32580562 38.0126546 5.65948148 37.01187895 4 36 C2.68 36 1.36 36 0 36 C0 24.12 0 12.24 0 0 Z " fill="#3D5FB5" transform="translate(126,167)"/>
<path d="M0 0 C5.875 2.75 5.875 2.75 7 5 C2.71 7.31 -1.58 9.62 -6 12 C-5.34 10.02 -4.68 8.04 -4 6 C-2.35 6 -0.7 6 1 6 C1.33 4.68 1.66 3.36 2 2 C1.34 2 0.68 2 0 2 C0 1.34 0 0.68 0 0 Z " fill="#355BCE" transform="translate(177,283)"/>
<path d="M0 0 C4.95 2.64 9.9 5.28 15 8 C15 8.33 15 8.66 15 9 C13.02 9 11.04 9 9 9 C9 8.34 9 7.68 9 7 C7.68 6.67 6.36 6.34 5 6 C5 5.67 5 5.34 5 5 C3.35 4.67 1.7 4.34 0 4 C0 2.68 0 1.36 0 0 Z " fill="#365BD4" transform="translate(165,221)"/>
<path d="M0 0 C4.95 0.99 4.95 0.99 10 2 C10 2.66 10 3.32 10 4 C10.66 4 11.32 4 12 4 C12.66 5.32 13.32 6.64 14 8 C8.76481294 6.56032356 4.36973991 4.18303389 0 1 C0 0.67 0 0.34 0 0 Z " fill="#2F5FD4" transform="translate(120,217)"/>
<path d="M0 0 C1.94113934 0.92994117 3.8777951 1.8692453 5.8125 2.8125 C6.89144531 3.33457031 7.97039062 3.85664063 9.08203125 4.39453125 C11.56579702 5.76110117 13.1799378 6.87340101 15 9 C12.82034689 8.53293148 11.07412835 8.04200607 9.125 6.9375 C6.34310544 5.71019357 4.00536594 5.86339246 1 6 C0.67 4.02 0.34 2.04 0 0 Z " fill="#315DD4" transform="translate(180,230)"/>
<path d="M0 0 C0.33 0 0.66 0 1 0 C1 6.27 1 12.54 1 19 C1.66 19 2.32 19 3 19 C4.625 21.5 4.625 21.5 6 24 C1.125 22.125 1.125 22.125 0 21 C-0.08685603 19.43827255 -0.10702219 17.87270656 -0.09765625 16.30859375 C-0.09443359 15.36435547 -0.09121094 14.42011719 -0.08789062 13.44726562 C-0.07951172 12.45404297 -0.07113281 11.46082031 -0.0625 10.4375 C-0.05798828 9.44041016 -0.05347656 8.44332031 -0.04882812 7.41601562 C-0.03700007 4.94395151 -0.02051849 2.47200482 0 0 Z " fill="#335CC9" transform="translate(60,217)"/>
<path d="M0 0 C2.97 0.495 2.97 0.495 6 1 C3.63202009 3.61724095 1.10399646 5.32861729 -2 7 C-2.66 7 -3.32 7 -4 7 C-3.6875 5.125 -3.6875 5.125 -3 3 C-2.01 2.34 -1.02 1.68 0 1 C0 0.67 0 0.34 0 0 Z " fill="#2B60D8" transform="translate(214,210)"/>
<path d="M0 0 C0 0.66 0 1.32 0 2 C-0.66 2 -1.32 2 -2 2 C-2 2.66 -2 3.32 -2 4 C-2.639375 4.12375 -3.27875 4.2475 -3.9375 4.375 C-4.9584375 4.684375 -4.9584375 4.684375 -6 5 C-6.33 5.66 -6.66 6.32 -7 7 C-8.65 7 -10.3 7 -12 7 C-9.20232475 3.70861735 -4.40323273 0 0 0 Z " fill="#355AD5" transform="translate(243,231)"/>
<path d="M0 0 C4.62 2.31 9.24 4.62 14 7 C13.34 7.66 12.68 8.32 12 9 C9.99492073 7.88407791 7.99603904 6.75701288 6 5.625 C4.88625 4.99851563 3.7725 4.37203125 2.625 3.7265625 C1.75875 3.15679687 0.8925 2.58703125 0 2 C0 1.34 0 0.68 0 0 Z " fill="#2C57CC" transform="translate(78,226)"/>
<path d="M0 0 C8.93617021 1.93617021 8.93617021 1.93617021 12 5 C12 5.66 12 6.32 12 7 C7.39104317 5.68315519 3.85859765 3.84801255 0 1 C0 0.67 0 0.34 0 0 Z " fill="#2F5CCD" transform="translate(108,210)"/>
<path d="M0 0 C3.63 1.98 7.26 3.96 11 6 C7.93109813 7.53445094 5.29905734 6.54984289 2 6 C2 4.68 2 3.36 2 2 C1.34 2 0.68 2 0 2 C0 1.34 0 0.68 0 0 Z " fill="#345DD5" transform="translate(144,209)"/>
<path d="M0 0 C5.94 3.465 5.94 3.465 12 7 C11.01 7.33 10.02 7.66 9 8 C7.32580562 7.0126546 5.65948148 6.01187895 4 5 C2.68 5 1.36 5 0 5 C0 3.35 0 1.7 0 0 Z " fill="#335CCE" transform="translate(126,198)"/>
<path d="M0 0 C-1.36983503 3.16115776 -1.9890638 3.9927092 -5 6 C-6.32 5.34 -7.64 4.68 -9 4 C-2.25 0 -2.25 0 0 0 Z " fill="#2F5FD4" transform="translate(231,238)"/>
<path d="M0 0 C0.99 0.33 1.98 0.66 3 1 C3 2.65 3 4.3 3 6 C1.35 6 -0.3 6 -2 6 C-1.34 4.02 -0.68 2.04 0 0 Z " fill="#1F5FE9" transform="translate(203,82)"/>
<path d="M0 0 C-1.57067171 1.80627247 -2.79299586 2.90943569 -5 3.875 C-7 4 -7 4 -8.75 2.5625 C-9.1625 2.046875 -9.575 1.53125 -10 1 C-6.59437148 0.22157062 -3.49234244 -0.09978121 0 0 Z " fill="#355ECF" transform="translate(218,267)"/>
<path d="M0 0 C1.98 0 3.96 0 6 0 C6 0.66 6 1.32 6 2 C7.32 2.66 8.64 3.32 10 4 C8.375 4.75 8.375 4.75 6 5 C2.75 3.125 2.75 3.125 0 1 C0 0.67 0 0.34 0 0 Z " fill="#2F5DCE" transform="translate(110,266)"/>
<path d="M0 0 C3.125 0.375 3.125 0.375 6 1 C1.25 5 1.25 5 -1 5 C-1.33 4.01 -1.66 3.02 -2 2 C-1.34 1.34 -0.68 0.68 0 0 Z " fill="#335EDE" transform="translate(145,250)"/>
<path d="M0 0 C3.59391114 1.33488128 6.75490696 2.96022723 10 5 C6.98968256 5.93423645 6.13349732 6.04449911 3 5 C1.3125 2.4375 1.3125 2.4375 0 0 Z " fill="#355BCD" transform="translate(102,240)"/>
<path d="M0 0 C0.66 0.33 1.32 0.66 2 1 C2 1.66 2 2.32 2 3 C4.31 3.33 6.62 3.66 9 4 C7.4375 5.25 7.4375 5.25 5 6 C2.42998985 4.93237266 0.3469597 3.53455057 -2 2 C-1.34 1.34 -0.68 0.68 0 0 Z " fill="#345DCD" transform="translate(189,220)"/>
<path d="M0 0 C4.11801218 0.20590061 4.97051802 0.97051802 8 4 C4.37 3.67 0.74 3.34 -3 3 C-2.01 2.01 -1.02 1.02 0 0 Z " fill="#355CC5" transform="translate(163,276)"/>
<path d="M0 0 C1.98 0 3.96 0 6 0 C6 0.66 6 1.32 6 2 C4.02 2.66 2.04 3.32 0 4 C0 2.68 0 1.36 0 0 Z " fill="#365FF0" transform="translate(120,254)"/>
<path d="M0 0 C0 1.65 0 3.3 0 5 C-2.91517292 3.92598892 -4.77810176 3.22189824 -7 1 C-4.50935112 0.31292445 -2.62113708 0 0 0 Z " fill="#3360DA" transform="translate(151,230)"/>
<path d="M0 0 C3.96 1.98 3.96 1.98 8 4 C4.16380575 4.95904856 2.67568464 4.91892116 -1 4 C-0.67 2.68 -0.34 1.36 0 0 Z " fill="#2F5CD3" transform="translate(156,216)"/>
<path d="M0 0 C0.33 0.66 0.66 1.32 1 2 C0.0625 4.125 0.0625 4.125 -1 6 C-2.32 5.67 -3.64 5.34 -5 5 C-4 2 -4 2 -1.9375 0.8125 C-1.298125 0.544375 -0.65875 0.27625 0 0 Z " fill="#335FCE" transform="translate(181,211)"/>
<path d="M0 0 C1.65 0 3.3 0 5 0 C5 1.32 5 2.64 5 4 C3.35 3.67 1.7 3.34 0 3 C0 2.01 0 1.02 0 0 Z " fill="#2365E7" transform="translate(168,179)"/>
<path d="M0 0 C1.65 0 3.3 0 5 0 C5 0.66 5 1.32 5 2 C2 4 2 4 -1 4 C-0.67 2.68 -0.34 1.36 0 0 Z " fill="#2165E8" transform="translate(113,254)"/>
<path d="M0 0 C3.96 1.98 3.96 1.98 8 4 C4.37673261 5.2077558 3.35853631 4.54311128 0 3 C0 2.01 0 1.02 0 0 Z " fill="#355CD4" transform="translate(139,241)"/>
</svg>
