<?xml version="1.0" encoding="UTF-8"?>
<svg version="1.1" xmlns="http://www.w3.org/2000/svg" width="714" height="322">
<path d="M0 0 C6.6 0 13.2 0 20 0 C20 16.17 20 32.34 20 49 C28.91 49 37.82 49 47 49 C47 40.09 47 31.18 47 22 C53.6 22 60.2 22 67 22 C67 72.16 67 122.32 67 174 C58.42 178.95 49.84 183.9 41 189 C34.25 186.75 34.25 186.75 31.3515625 185.0546875 C30.73925781 184.70019531 30.12695312 184.34570312 29.49609375 183.98046875 C28.87863281 183.61566406 28.26117188 183.25085938 27.625 182.875 C26.98433594 182.50246094 26.34367187 182.12992188 25.68359375 181.74609375 C24.11951523 180.83565998 22.55934466 179.91851809 21 179 C22.28276271 175.15171187 23.57086026 174.81411795 27.05859375 172.86328125 C28.08404297 172.28642578 29.10949219 171.70957031 30.16601562 171.11523438 C31.78540039 170.22288086 31.78540039 170.22288086 33.4375 169.3125 C34.51322266 168.70599609 35.58894531 168.09949219 36.69726562 167.47460938 C44.71532269 163 44.71532269 163 47 163 C47 131.98 47 100.96 47 69 C38.09 69 29.18 69 20 69 C20.04189453 71.30637451 20.08378906 73.61274902 20.12695312 75.98901367 C20.25955519 83.6122424 20.3478935 91.23552234 20.41449738 98.85959911 C20.45623675 103.48197144 20.51283815 108.10316164 20.60351562 112.72485352 C20.69049242 117.18588666 20.73828356 121.64578365 20.75901794 126.10759926 C20.77379147 127.80900274 20.80264328 129.51034448 20.84584045 131.21126366 C21.17040579 144.5216025 21.17040579 144.5216025 18.27563477 148.1781311 C15.0313645 150.31321695 12.76158882 150.98476822 8.875 151.0625 C5.34956986 149.75962364 2.89229406 148.42844052 0 146 C-0.59244027 143.20480851 -0.76641235 141.26646065 -0.68115234 138.47753906 C-0.68246658 137.3501255 -0.68246658 137.3501255 -0.68380737 136.19993591 C-0.67963398 133.72076708 -0.63300048 131.24431969 -0.5859375 128.765625 C-0.57474431 127.04499795 -0.5662047 125.32435175 -0.56021118 123.60369873 C-0.53732211 119.07894931 -0.4783993 114.55535893 -0.4119873 110.03106689 C-0.3505658 105.41279785 -0.32319652 100.79434117 -0.29296875 96.17578125 C-0.22865468 87.11659679 -0.12312996 78.05857618 0 69 C-9.24 69 -18.48 69 -28 69 C-28.41316803 80.88486215 -28.72193235 92.76031887 -28.8523407 104.65171242 C-28.91697956 110.17512631 -29.02543913 115.69009536 -29.23779297 121.20996094 C-31.20802568 144.13340113 -31.20802568 144.13340113 -24.75286865 165.29751587 C-19.21496031 170.32811587 -12.9573097 172.88867754 -5.87536621 175.0703125 C-2.11357733 176.28660561 0.78627942 178.00454672 4.1171875 180.12109375 C6.03610317 181.22717889 7.95536412 182.33266528 9.875 183.4375 C12.03516994 184.68226791 14.19532573 185.92706038 16.35546875 187.171875 C17.43747559 187.79513672 18.51948242 188.41839844 19.63427734 189.06054688 C23.1489325 191.08582038 26.66255469 193.11287479 30.17578125 195.140625 C30.76593018 195.48122452 31.3560791 195.82182404 31.96411133 196.17274475 C34.79692756 197.80769907 37.62969 199.44274655 40.46240234 201.07788086 C42.44748323 202.22333766 44.43555261 203.36363863 46.42724609 204.49755859 C48.00208438 205.41723546 49.5581982 206.3713009 51.07666016 207.38134766 C53.02205379 208.71690784 53.02205379 208.71690784 56 210 C60.45204892 208.89490338 64.15367188 206.93088001 68.09765625 204.62890625 C69.22880859 203.97212891 70.35996094 203.31535156 71.52539062 202.63867188 C72.70448445 201.94671233 73.88352043 201.25465419 75.0625 200.5625 C76.24515168 199.87384891 77.42809212 199.18569349 78.61132812 198.49804688 C84.71793826 194.95331672 84.71793826 194.95331672 90.74780273 191.28100586 C93 190 93 190 95 190 C95 150.07 95 110.14 95 69 C89.06 69 83.12 69 77 69 C76.97316303 65.85411056 76.95324098 62.70844729 76.9375 59.5625 C76.92912109 58.66466797 76.92074219 57.76683594 76.91210938 56.84179688 C76.90888672 55.98779297 76.90566406 55.13378906 76.90234375 54.25390625 C76.89710693 53.46314697 76.89187012 52.6723877 76.88647461 51.85766602 C77 50 77 50 78 49 C80.73894085 48.91141354 83.4525327 48.88476521 86.19140625 48.90234375 C87.01124496 48.9037587 87.83108368 48.90517365 88.67576599 48.90663147 C91.30471382 48.91224711 93.93357773 48.92480221 96.5625 48.9375 C98.34049357 48.94251299 100.11848846 48.94707624 101.89648438 48.95117188 C106.26435545 48.96222161 110.63216348 48.97949669 115 49 C115.56207492 68.57496115 115.98452537 88.14827447 116.24349213 107.72964668 C116.36696933 116.82333069 116.53506796 125.91198713 116.81054688 135.00244141 C117.05071728 142.93157935 117.20480059 150.85707796 117.25812387 158.78975189 C117.28928412 162.98775556 117.3616979 167.17535623 117.53752136 171.36999893 C118.56300961 196.8047384 118.56300961 196.8047384 112.66344261 203.75117683 C106.96407153 208.37545132 100.71092465 211.27712938 93.88279533 213.86021233 C89.90124922 215.43441953 86.34601479 217.52902735 82.70703125 219.76171875 C81.53442283 220.43604495 80.35932713 221.10606659 79.18164062 221.77148438 C75.71001396 223.74578336 72.23937199 225.72178263 68.76953125 227.69921875 C67.77542236 228.26471436 66.78131348 228.83020996 65.75708008 229.4128418 C62.97730571 230.95148368 62.97730571 230.95148368 60.4519043 232.83129883 C58 234 58 234 55.5480957 233.38769531 C54.70722412 232.92975586 53.86635254 232.47181641 53 232 C51.63524536 231.27055176 51.63524536 231.27055176 50.24291992 230.52636719 C49.24881104 229.95563477 48.25470215 229.38490234 47.23046875 228.796875 C46.10688965 228.15355225 44.98331055 227.51022949 43.82568359 226.84741211 C42.61288279 226.14840128 41.40015681 225.44926061 40.1875 224.75 C38.92540022 224.0252852 37.66319169 223.30075976 36.40087891 222.57641602 C27.56007855 217.49788703 18.74630552 212.37315598 9.9465332 207.22387695 C2.60740645 202.93010166 -4.75507414 198.67815567 -12.125 194.4375 C-20.62820358 189.5404774 -29.11069782 184.61026986 -37.5625 179.625 C-38.50303223 179.07126709 -39.44356445 178.51753418 -40.41259766 177.94702148 C-41.26772949 177.44114502 -42.12286133 176.93526855 -43.00390625 176.4140625 C-43.75486572 175.9701416 -44.5058252 175.5262207 -45.27954102 175.06884766 C-47 174 -47 174 -48 173 C-48.09664967 171.05105041 -48.12187121 169.09854545 -48.12025452 167.14720154 C-48.12162918 165.87528961 -48.12300385 164.60337769 -48.12442017 163.29292297 C-48.12088055 161.87033058 -48.11724573 160.44773842 -48.11352539 159.02514648 C-48.11324353 157.53733319 -48.11340124 156.04951976 -48.1139679 154.56170654 C-48.1142559 150.51023 -48.10835867 146.4587828 -48.10139394 142.40731311 C-48.09516092 138.17788003 -48.09455664 133.94844636 -48.09336853 129.7190094 C-48.09025506 121.70440278 -48.08204146 113.68980973 -48.07201904 105.67520911 C-48.06085839 96.55323316 -48.05534758 87.43125658 -48.05032361 78.30927551 C-48.03985886 59.53950909 -48.0220587 40.76975613 -48 22 C-41.4 22 -34.8 22 -28 22 C-28 30.91 -28 39.82 -28 49 C-18.76 49 -9.52 49 0 49 C0 32.83 0 16.66 0 0 Z " fill="#2E62E8" transform="translate(153,29)"/>
<path d="M0 0 C7.92 0 15.84 0 24 0 C25.49941494 4.6714531 26.99451313 9.34391855 28.47998047 14.01977539 C28.98386695 15.60188946 29.48996503 17.18330128 29.99853516 18.76391602 C32.98142847 28.04041889 35.69361173 37.28882489 37.78253174 46.81163025 C38.29880134 50.19005953 38.29880134 50.19005953 40 53 C40.24492187 51.9275 40.48984375 50.855 40.7421875 49.75 C43.4469921 38.28707809 46.73438475 27.04769389 50.25 15.8125 C50.47604919 15.08683838 50.70209839 14.36117676 50.93499756 13.61352539 C51.58263429 11.5391639 52.23540512 9.46650857 52.890625 7.39453125 C53.27250977 6.18643799 53.65439453 4.97834473 54.04785156 3.73364258 C55 1 55 1 56 0 C63.59 0 71.18 0 79 0 C79 31.02 79 62.04 79 94 C73.39 94 67.78 94 62 94 C61.975074 86.29940012 61.95703404 78.59882431 61.94506836 70.89819336 C61.9400741 68.28458242 61.93327639 65.67097422 61.92456055 63.05737305 C61.91227802 59.27652301 61.90672248 55.49571027 61.90234375 51.71484375 C61.89718246 50.56733139 61.89202118 49.41981903 61.88670349 48.23753357 C61.88613052 39.74102234 62.43143779 31.52843311 63 23 C57.39 42.47 51.78 61.94 46 82 C42.04 82 38.08 82 34 82 C31.51814438 75.66222831 29.5290504 69.25675889 27.64453125 62.71875 C27.37233765 61.78321289 27.10014404 60.84767578 26.81970215 59.88378906 C25.81391438 56.42350875 24.8135168 52.96166351 23.8125 49.5 C21.564375 41.745 19.31625 33.99 17 26 C17 48.44 17 70.88 17 94 C11.39 94 5.78 94 0 94 C0 62.98 0 31.96 0 0 Z " fill="#0C185D" transform="translate(296,65)"/>
<path d="M0 0 C12.21 0 24.42 0 37 0 C37 6.6 37 13.2 37 20 C31.06 20 25.12 20 19 20 C19 59.93 19 99.86 19 141 C20.98 141.66 22.96 142.32 25 143 C26.8909384 143.98783594 28.75429199 145.02988918 30.58984375 146.1171875 C32.13768555 147.02791016 32.13768555 147.02791016 33.71679688 147.95703125 C35.31104492 148.90642578 35.31104492 148.90642578 36.9375 149.875 C40.05351687 151.71464477 43.16948375 153.55406102 46.29248047 155.38183594 C47.91824696 156.3534843 49.52817939 157.35359187 51.10205078 158.40722656 C54.07944856 160.356158 55.50569802 161.08019094 59.08203125 160.5 C62.18098973 158.9069611 64.86203046 157.03526319 67.6875 155 C73.07098604 151.77523856 73.07098604 151.77523856 76.90625 152.703125 C79.76873368 154.29518053 82.35455652 156.07103079 85 158 C86.71557133 158.98246381 88.44386727 159.94324626 90.1875 160.875 C91.45858156 161.5828878 92.72951673 162.29103897 94 163 C91.3565554 166.02373778 88.23454176 167.72440477 84.7578125 169.6875 C83.84973343 170.20316528 83.84973343 170.20316528 82.92330933 170.72924805 C80.99310651 171.82410773 79.05920128 172.91222254 77.125 174 C75.19880054 175.08924578 73.27337752 176.17985288 71.34811401 177.27075195 C69.59677155 178.26214254 67.84359955 179.2502991 66.09033203 180.23828125 C63.02041216 181.91836762 63.02041216 181.91836762 60.40576172 183.85546875 C58 185 58 185 55.5480957 184.38769531 C54.28678833 183.70078613 54.28678833 183.70078613 53 183 C51.63524536 182.27055176 51.63524536 182.27055176 50.24291992 181.52636719 C49.24881104 180.95563477 48.25470215 180.38490234 47.23046875 179.796875 C46.10487549 179.15242432 44.97928223 178.50797363 43.81958008 177.84399414 C42.60879573 177.14615393 41.39810436 176.4481524 40.1875 175.75 C38.94370202 175.03555439 37.69980438 174.32128226 36.45581055 173.60717773 C32.63367664 171.4108831 28.81610725 169.20674628 25 167 C24.39273071 166.64891174 23.78546143 166.29782349 23.15979004 165.93609619 C19.20760044 163.65020409 15.25895199 161.3582885 11.3125 159.0625 C10.28600342 158.46598633 9.25950684 157.86947266 8.2019043 157.25488281 C7.26515869 156.70799805 6.32841309 156.16111328 5.36328125 155.59765625 C4.54126221 155.11820557 3.71924316 154.63875488 2.87231445 154.14477539 C1 153 1 153 0 152 C-0.09666937 150.03838396 -0.12187097 148.07323355 -0.12025452 146.10923767 C-0.12162918 144.82891159 -0.12300385 143.54858551 -0.12442017 142.22946167 C-0.12088055 140.79742409 -0.11724573 139.36538674 -0.11352539 137.93334961 C-0.11324353 136.43568422 -0.11340124 134.9380187 -0.1139679 133.44035339 C-0.11425591 129.36201828 -0.10835864 125.28371233 -0.10139394 121.20538402 C-0.09516095 116.94792372 -0.09455665 112.69046282 -0.09336853 108.43299866 C-0.09025505 100.36526813 -0.08204144 92.29755109 -0.07201904 84.22982651 C-0.06085842 75.04739221 -0.05534758 65.86495728 -0.05032361 56.68251789 C-0.03985884 37.78833605 -0.02151315 18.89417271 0 0 Z " fill="#2D62E9" transform="translate(58,78)"/>
<path d="M0 0 C40.83333333 0 40.83333333 0 50.6875 9.625 C56.65010116 17.29944472 56.79637684 27.16443211 55.71875 36.4140625 C54.20559266 44.88192375 49.95655306 51.05311782 43 56 C42.34 56 41.68 56 41 56 C41.54527344 57.08007324 42.09054687 58.16014648 42.65234375 59.27294922 C44.66906999 63.27027602 46.6805486 67.27022373 48.69042969 71.27099609 C49.5620396 73.00414137 50.43508233 74.73656684 51.30957031 76.46826172 C52.56429946 78.9535359 53.81389926 81.44132996 55.0625 83.9296875 C55.45622803 84.70682098 55.84995605 85.48395447 56.25561523 86.28463745 C59 91.77225659 59 91.77225659 59 94 C52.73 94 46.46 94 40 94 C36.05407029 86.41167364 32.50495281 78.72946206 29.125 70.875 C28.71967041 69.93825439 28.31434082 69.00150879 27.89672852 68.03637695 C27.33296509 66.71512817 27.33296509 66.71512817 26.7578125 65.3671875 C26.4189502 64.57425293 26.08008789 63.78131836 25.73095703 62.96435547 C25 61 25 61 25 59 C23.02 59 21.04 59 19 59 C19 70.55 19 82.1 19 94 C12.73 94 6.46 94 0 94 C0 62.98 0 31.96 0 0 Z M19 11 C19 23.21 19 35.42 19 48 C27.13965809 48.12519752 27.13965809 48.12519752 34 45 C37.50989356 39.78833986 37.45473989 34.99330198 37.375 28.9375 C37.38660156 28.05255859 37.39820313 27.16761719 37.41015625 26.25585938 C37.38819525 21.37685639 37.22872018 17.92058879 34 14 C28.60153883 10.2724911 26.25618788 11 19 11 Z " fill="#0D185D" transform="translate(603,65)"/>
<path d="M0 0 C5.52998885 4.29071016 8.53265175 9.95754155 9.97265625 16.74609375 C10.0766257 18.428243 10.13084258 20.11381807 10.1496582 21.79907227 C10.16891106 23.30698082 10.16891106 23.30698082 10.18855286 24.84535217 C10.19593979 25.92763596 10.20332672 27.00991974 10.2109375 28.125 C10.21900925 29.24744614 10.22708099 30.36989227 10.23539734 31.52635193 C10.24922646 33.90435243 10.25995385 36.28237269 10.26782227 38.66040039 C10.27931899 41.08005634 10.29973384 43.49968739 10.3293457 45.91918945 C10.37225428 49.42546738 10.38822639 52.93099128 10.3984375 56.4375 C10.41594559 57.50561417 10.43345367 58.57372833 10.45149231 59.67420959 C10.42463324 69.10599588 8.39762383 78.25891441 1.75 85.3125 C-5.94827834 91.52188055 -15.49709125 92.56330139 -25.02734375 91.74609375 C-32.00405769 90.14802446 -38.45237854 87.41805334 -43.02734375 81.74609375 C-46.27732623 76.03129276 -48.13558039 70.43954809 -48.18847656 63.86083984 C-48.19808411 62.89238129 -48.20769165 61.92392273 -48.21759033 60.92611694 C-48.22184021 59.88444366 -48.22609009 58.84277039 -48.23046875 57.76953125 C-48.23616882 56.68910553 -48.2418689 55.60867981 -48.2477417 54.49551392 C-48.25718612 52.20746843 -48.26372347 49.91940938 -48.26757812 47.63134766 C-48.27724935 44.15502691 -48.30826453 40.67930618 -48.33984375 37.203125 C-48.34637771 34.97526391 -48.35162664 32.74739861 -48.35546875 30.51953125 C-48.36781555 29.49000336 -48.38016235 28.46047546 -48.3928833 27.39974976 C-48.36581665 18.49473198 -47.00642957 9.69476106 -41.02734375 2.74609375 C-29.77082324 -6.07724874 -12.38977903 -7.66304252 0 0 Z M-28.02734375 12.74609375 C-29.07388243 15.858847 -29.16445693 18.77701067 -29.18847656 22.04614258 C-29.19808411 23.10436722 -29.20769165 24.16259186 -29.21759033 25.25288391 C-29.22184021 26.39146347 -29.22609009 27.53004303 -29.23046875 28.703125 C-29.23616882 29.87944992 -29.2418689 31.05577484 -29.2477417 32.26774597 C-29.25718621 34.75669456 -29.2637235 37.24565562 -29.26757812 39.73461914 C-29.27727989 43.53358887 -29.30830786 47.33201668 -29.33984375 51.13085938 C-29.34637446 53.55077804 -29.35162466 55.97070057 -29.35546875 58.390625 C-29.36781555 59.52313187 -29.38016235 60.65563873 -29.3928833 61.82246399 C-29.37335411 68.77023505 -29.19468983 74.57874767 -24.02734375 79.74609375 C-19.42234068 80.43604194 -15.32917323 80.66689997 -11.46484375 77.93359375 C-9.10324186 74.33985174 -8.89522059 71.46527556 -8.86621094 67.26831055 C-8.85660339 66.14672043 -8.84699585 65.02513031 -8.83709717 63.86955261 C-8.83284729 62.65705338 -8.82859741 61.44455414 -8.82421875 60.1953125 C-8.81566864 58.32526299 -8.81566864 58.32526299 -8.8069458 56.41743469 C-8.79749209 53.77703196 -8.79059722 51.13674299 -8.78710938 48.49633789 C-8.78271938 45.79307594 -8.76880809 43.09013222 -8.74609375 40.38696289 C-8.71563296 36.48964742 -8.70506118 32.59273375 -8.69921875 28.6953125 C-8.68687195 27.48888596 -8.67452515 26.28245941 -8.6618042 25.03947449 C-8.60535417 16.94262135 -8.60535417 16.94262135 -12.02734375 9.74609375 C-18.38076573 5.5104791 -23.61575876 6.86398043 -28.02734375 12.74609375 Z " fill="#0C185D" transform="translate(577.02734375,68.25390625)"/>
<path d="M0 0 C3.65811063 2.77265109 5.7673246 5.56518349 7.16015625 9.8984375 C7.68711438 16.53141836 7.65278228 21.66687242 5.16015625 27.8984375 C0.54015625 27.8984375 -4.07984375 27.8984375 -8.83984375 27.8984375 C-9.19791667 24.41536458 -9.55598958 20.93229167 -9.9140625 17.44921875 C-11.01591368 13.2231313 -12.42824838 11.56816228 -15.83984375 8.8984375 C-19.81114559 8.48040573 -23.02374837 8.87969869 -26.83984375 9.8984375 C-28.87126337 16.62360646 -29.13185042 22.80869091 -29.10546875 29.80859375 C-29.1073822 30.93486679 -29.10929565 32.06113983 -29.11126709 33.22154236 C-29.11262273 35.59244003 -29.10896988 37.96334528 -29.10058594 40.33422852 C-29.08986783 43.95280689 -29.10050783 47.57088996 -29.11328125 51.18945312 C-29.11195974 53.50000109 -29.10939753 55.81054875 -29.10546875 58.12109375 C-29.10951721 59.19730484 -29.11356567 60.27351593 -29.11773682 61.38233948 C-29.28048748 70.90694643 -29.28048748 70.90694643 -24.83984375 78.8984375 C-20.44863394 79.55635395 -16.27238988 79.68633787 -12.33984375 77.5234375 C-8.20082415 70.28015319 -8.371179 61.03625631 -7.83984375 52.8984375 C-11.13984375 52.8984375 -14.43984375 52.8984375 -17.83984375 52.8984375 C-17.83984375 49.5984375 -17.83984375 46.2984375 -17.83984375 42.8984375 C-8.92984375 42.8984375 -0.01984375 42.8984375 9.16015625 42.8984375 C9.16015625 58.7384375 9.16015625 74.5784375 9.16015625 90.8984375 C5.20015625 90.8984375 1.24015625 90.8984375 -2.83984375 90.8984375 C-3.33484375 87.4334375 -3.33484375 87.4334375 -3.83984375 83.8984375 C-4.85304688 84.63900391 -4.85304688 84.63900391 -5.88671875 85.39453125 C-6.77875 86.03519531 -7.67078125 86.67585938 -8.58984375 87.3359375 C-9.4715625 87.97402344 -10.35328125 88.61210937 -11.26171875 89.26953125 C-16.39627394 92.51363657 -21.90509476 92.51809512 -27.83984375 91.8984375 C-34.76138547 89.93209042 -41.44711324 86.01480671 -45.125 79.6875 C-47.65432574 74.22995844 -48.95021033 69.11638404 -49.00097656 63.08325195 C-49.01058411 62.15491043 -49.02019165 61.22656891 -49.03009033 60.27009583 C-49.03434021 59.27733139 -49.03859009 58.28456696 -49.04296875 57.26171875 C-49.04866882 56.22710007 -49.0543689 55.19248138 -49.0602417 54.12651062 C-49.06967506 51.93859881 -49.07621906 49.75067289 -49.08007812 47.56274414 C-49.08975867 44.24014009 -49.12078816 40.9181615 -49.15234375 37.59570312 C-49.15887707 35.46354531 -49.16412625 33.33138311 -49.16796875 31.19921875 C-49.18031555 30.21657547 -49.19266235 29.23393219 -49.2053833 28.22151184 C-49.17303438 18.04500698 -47.03142614 9.24734057 -39.77734375 1.7734375 C-28.15140982 -5.64737139 -12.1767855 -7.29055947 0 0 Z " fill="#0D185D" transform="translate(506.83984375,68.1015625)"/>
<path d="M0 0 C6.93 0 13.86 0 21 0 C22.95731954 5.87195862 24.71393958 11.50761832 26.0847168 17.50146484 C26.27047272 18.29775299 26.45622864 19.09404114 26.64761353 19.91445923 C27.25243104 22.5123125 27.85101274 25.11155455 28.44921875 27.7109375 C28.8706317 29.52941358 29.29233336 31.34782278 29.71430969 33.16616821 C30.59363043 36.95959353 31.46993704 40.75369835 32.34399414 44.54833984 C33.46523479 49.41529275 34.59332788 54.2806264 35.72355938 59.14549828 C36.59332003 62.8920537 37.45985085 66.63935017 38.32535744 70.38689041 C38.74030122 72.18208557 39.15616895 73.97706742 39.57297325 75.77183151 C40.15303883 78.27212229 40.72884068 80.77335669 41.3034668 83.27490234 C41.47641769 84.01673767 41.64936859 84.758573 41.82756042 85.52288818 C42.4893093 88.42067466 43 91.01626759 43 94 C36.73 94 30.46 94 24 94 C23.01 88.39 22.02 82.78 21 77 C14.07 77 7.14 77 0 77 C-0.12375 78.69125 -0.2475 80.3825 -0.375 82.125 C-0.70440186 86.62682543 -1.51131714 89.53395142 -3 94 C-8.94 94 -14.88 94 -21 94 C-19.40839015 83.49388054 -17.06836524 73.22861048 -14.6484375 62.890625 C-14.22498564 61.06939128 -13.80186502 59.24808051 -13.37905884 57.42669678 C-12.27432885 52.67167346 -11.16515122 47.91769883 -10.05499268 43.16394043 C-8.91935082 38.29742812 -7.78798942 33.42992103 -6.65625 28.5625 C-4.44164961 19.040696 -2.22194625 9.5200925 0 0 Z M10 22 C8.99748722 27.46163781 8.00074198 32.92428522 7.00927734 38.38793945 C6.67133529 40.24564875 6.33183158 42.10307467 5.99072266 43.96020508 C5.50009828 46.63289212 5.01513796 49.30655494 4.53125 51.98046875 C4.37813354 52.80773972 4.22501709 53.63501068 4.06726074 54.48735046 C3.92711548 55.26778214 3.78697021 56.04821381 3.64257812 56.85229492 C3.51822388 57.53402267 3.39386963 58.21575043 3.26574707 58.9181366 C2.89448231 61.47683328 2.89448231 61.47683328 3 66 C8.28 66 13.56 66 19 66 C17.6322132 56.20386028 16.14474061 46.44131021 14.5 36.6875 C14.39349121 36.03048096 14.28698242 35.37346191 14.17724609 34.6965332 C13.86625157 32.77936284 13.54272326 30.86423863 13.21875 28.94921875 C13.03248047 27.82862061 12.84621094 26.70802246 12.65429688 25.5534668 C12.43837891 24.71082275 12.22246094 23.86817871 12 23 C11.34 22.67 10.68 22.34 10 22 Z " fill="#0D185C" transform="translate(407,65)"/>
<path d="M0 0 C1.38251953 -0.0309375 1.38251953 -0.0309375 2.79296875 -0.0625 C10.33687264 -0.10506081 16.94862082 0.78292747 22.9375 5.625 C26.17101587 9.74038383 27.22389864 12.48018773 26.875 17.6875 C25.89448373 24.5511139 22.31682371 28.12153921 17 32.25 C17.32274902 32.77432617 17.64549805 33.29865234 17.97802734 33.83886719 C19.44539859 36.22486244 20.91022204 38.61241192 22.375 41 C23.13683594 42.2375 23.13683594 42.2375 23.9140625 43.5 C24.64882813 44.69882813 24.64882813 44.69882813 25.3984375 45.921875 C25.84880371 46.6550293 26.29916992 47.38818359 26.76318359 48.14355469 C27.93661168 50.14204216 28.99035472 52.16477343 30 54.25 C26.78755131 54.81358749 25.07093503 55.10964554 22 54.25 C18.26726664 50.52517497 15.81042304 45.83859044 13.4296875 41.171875 C11.80074303 38.16580357 10.39029187 35.7022624 8 33.25 C3.727726 31.99408026 0.5274532 32.09738922 -4 32.25 C-4 39.51 -4 46.77 -4 54.25 C-6.31 54.25 -8.62 54.25 -11 54.25 C-11.02526648 46.72030348 -11.04283141 39.1906178 -11.05493164 31.66088867 C-11.0599737 29.09708243 -11.06680714 26.53327909 -11.07543945 23.96948242 C-11.08751064 20.29344979 -11.09322942 16.61745502 -11.09765625 12.94140625 C-11.10281754 11.78725723 -11.10797882 10.63310822 -11.11329651 9.44398499 C-11.11337204 8.38296066 -11.11344757 7.32193634 -11.11352539 6.22875977 C-11.115746 5.28944107 -11.11796661 4.35012238 -11.12025452 3.38233948 C-10.82672009 -1.82257978 -3.99440361 0.02162059 0 0 Z M-4 7.25 C-4 13.19 -4 19.13 -4 25.25 C0.3003125 25.37375 0.3003125 25.37375 4.6875 25.5 C6.02880981 25.55462402 6.02880981 25.55462402 7.3972168 25.61035156 C11.43371478 25.66648319 13.50431065 25.55716067 17.01953125 23.37890625 C19.39058229 20.8301433 20 19.73224148 20 16.25 C18.59502872 11.30729583 18.59502872 11.30729583 14.90234375 8.05078125 C11.13852615 7.01231206 7.55304048 7.03588318 3.6875 7.125 C1.150625 7.16625 -1.38625 7.2075 -4 7.25 Z " fill="#0E185A" transform="translate(518,181.75)"/>
<path d="M0 0 C8.8790625 -0.0309375 8.8790625 -0.0309375 17.9375 -0.0625 C19.80784912 -0.071604 21.67819824 -0.08070801 23.60522461 -0.09008789 C25.07926359 -0.09300709 26.55330337 -0.09555564 28.02734375 -0.09765625 C28.79953247 -0.10277222 29.57172119 -0.10788818 30.36730957 -0.11315918 C32.24525187 -0.11346974 34.12309253 -0.06233569 36 0 C37 1 37 1 37 7 C27.1 7 17.2 7 7 7 C7 12.28 7 17.56 7 23 C14.59 23 22.18 23 30 23 C30 25.31 30 27.62 30 30 C22.41 30 14.82 30 7 30 C7 35.61 7 41.22 7 47 C9.15402344 46.98839844 11.30804688 46.97679687 13.52734375 46.96484375 C15.60571139 46.95705263 17.68407743 46.95097619 19.76245117 46.94506836 C21.21070073 46.94002899 22.65894517 46.93319747 24.10717773 46.92456055 C26.18474588 46.91247753 28.26224697 46.90676789 30.33984375 46.90234375 C31.59144287 46.89710693 32.84304199 46.89187012 34.13256836 46.88647461 C37 47 37 47 38 48 C38 49.98 38 51.96 38 54 C25.46 54 12.92 54 0 54 C0 36.18 0 18.36 0 0 Z " fill="#101A57" transform="translate(350,182)"/>
<path d="M0 0 C3.68149965 2.16834089 6.00342529 4.94220977 8.5 8.375 C7.45125002 10.99687494 6.85068687 12.16871361 4.375 13.625 C3.75625 13.8725 3.1375 14.12 2.5 14.375 C1.901875 13.42625 1.30375 12.4775 0.6875 11.5 C-2.05780728 7.57813246 -3.55196277 6.56460745 -8.25 5.625 C-12.39235415 5.20542453 -15.61316325 5.77453781 -19.5 7.375 C-21.62894624 8.99048201 -21.62894624 8.99048201 -22.5 11.375 C-22.74677006 14.47793293 -22.74677006 14.47793293 -21.5 17.375 C-16.10216933 20.68117128 -10.12810905 21.9177156 -4.04492188 23.39257812 C1.48836652 24.82576011 5.69592216 26.50487616 8.875 31.5625 C10.09716069 37.06222308 9.3182821 41.73843579 6.8125 46.75 C3.0715651 50.99646664 -1.01062927 52.54447561 -6.5 53.375 C-16.07205625 53.32707982 -23.35321467 52.1247417 -30.5 45.375 C-31.8125 42.625 -31.8125 42.625 -32.5 40.375 C-30.52 39.055 -28.54 37.735 -26.5 36.375 C-25.93732422 37.09816406 -25.93732422 37.09816406 -25.36328125 37.8359375 C-21.33662563 42.93657033 -21.33662563 42.93657033 -15.5 45.375 C-9.59812558 45.9106323 -4.4484005 46.05457986 0.5 42.375 C1.6189627 39.64752842 1.65192616 38.11292705 1.0625 35.25 C-2.56561814 30.89625823 -9.21577142 30.19731255 -14.5 29 C-20.26281221 27.60671249 -26.40610385 25.74582954 -29.69140625 20.45703125 C-31.4777899 15.8573091 -30.95331407 11.61564903 -29.3125 7.125 C-23.03741507 -2.39581852 -10.18506493 -4.65602968 0 0 Z " fill="#0E1858" transform="translate(328.5,183.625)"/>
<path d="M0 0 C2.31 0 4.62 0 7 0 C7.01981934 1.07894531 7.03963867 2.15789062 7.06005859 3.26953125 C7.1365856 7.30279433 7.22522737 11.3357186 7.31738281 15.36865234 C7.35547915 17.10849276 7.39036447 18.84840676 7.421875 20.58837891 C7.46794901 23.10085205 7.5258695 25.612827 7.5859375 28.125 C7.59748871 28.89303955 7.60903992 29.6610791 7.62094116 30.45239258 C7.75840575 35.57307057 8.43186429 40.10725458 10 45 C15.46879384 48.20124517 22.37751969 47.42913314 28.4375 46.4375 C31.29815163 45.19493597 31.29815163 45.19493597 32.13427734 41.97241211 C33.22684522 37.66437024 33.34976149 33.42977194 33.4140625 29.00390625 C33.43342865 28.17036118 33.4527948 27.3368161 33.4727478 26.47801208 C33.53208993 23.83960916 33.57874573 21.20116152 33.625 18.5625 C33.66322164 16.76365381 33.70227575 14.96482511 33.7421875 13.16601562 C33.8377536 8.77748729 33.9219502 4.38887339 34 0 C35.99954746 -0.04254356 38.00041636 -0.04080783 40 0 C42.04078846 2.04078846 41.21220485 6.25334536 41.23828125 9.05859375 C41.246353 9.87691177 41.25442474 10.6952298 41.26274109 11.53834534 C41.27660788 13.27936675 41.28731836 15.02041566 41.29516602 16.76147461 C41.31222838 19.39556751 41.35606967 22.02835519 41.40039062 24.66210938 C41.57988184 44.04877639 41.57988184 44.04877639 34.6875 51.5 C28.16498257 55.14047484 21.09762303 56.17144658 13.82421875 54.5 C9.16411706 52.95540886 6.06564594 50.94154478 3 47 C0.29941816 41.00323357 -0.41749066 36.21593069 -0.29296875 29.6875 C-0.28872391 28.83317383 -0.28447906 27.97884766 -0.28010559 27.09863281 C-0.26345703 24.39875318 -0.22583223 21.69964989 -0.1875 19 C-0.17243523 17.15756295 -0.15874998 15.31511407 -0.14648438 13.47265625 C-0.11359906 8.98147661 -0.06191456 4.49086944 0 0 Z " fill="#0F1957" transform="translate(451,182)"/>
<path d="M0 0 C4.65399016 2.13567426 7.71259224 5.02675572 10.48046875 9.3125 C10.29296875 11.6875 10.29296875 11.6875 9.48046875 13.3125 C7.50046875 13.6425 5.52046875 13.9725 3.48046875 14.3125 C3.00609375 13.36375 2.53171875 12.415 2.04296875 11.4375 C0.14950723 8.63064331 -1.44746843 7.64467022 -4.70703125 6.75 C-9.81056215 5.92467652 -13.98973492 6.8656823 -18.51953125 9.3125 C-22.53439853 13.22442196 -24.32021285 17.24283337 -24.85546875 22.80078125 C-24.93172611 30.26637697 -24.9025495 35.98147365 -20.51953125 42.3125 C-16.41130455 46.17174326 -12.24611795 46.66453284 -6.8046875 46.59375 C-3.22360736 46.15300167 -1.1891364 44.66429501 1.48046875 42.3125 C3.34357197 39.71225951 3.34357197 39.71225951 4.48046875 37.3125 C7.45046875 37.8075 7.45046875 37.8075 10.48046875 38.3125 C10.81046875 39.3025 11.14046875 40.2925 11.48046875 41.3125 C8.41482619 46.95328231 4.43173486 50.99384919 -1.45703125 53.625 C-9.06169407 55.3321692 -16.54769675 54.11114458 -23.3515625 50.28125 C-29.53365296 45.64859487 -31.52563455 39.30367036 -32.89453125 32 C-34.02788221 23.17824115 -33.09096269 15.43855764 -27.9453125 8.03125 C-20.60869433 -0.81289245 -11.12305957 -3.03512943 0 0 Z " fill="#0E1859" transform="translate(428.51953125,182.6875)"/>
<path d="M0 0 C2.64 0 5.28 0 8 0 C8.60328125 1.07378906 9.2065625 2.14757812 9.828125 3.25390625 C10.63540373 4.69011144 11.44269613 6.12630894 12.25 7.5625 C12.64574219 8.26697266 13.04148437 8.97144531 13.44921875 9.69726562 C13.84238281 10.39658203 14.23554687 11.09589844 14.640625 11.81640625 C15.03185547 12.5139502 15.42308594 13.21149414 15.82617188 13.93017578 C16.6027539 15.29953152 17.39039586 16.66267934 18.18945312 18.01904297 C21 22.79870756 21 22.79870756 21 25 C21.66 25 22.32 25 23 25 C23.22558594 24.20207031 23.45117188 23.40414062 23.68359375 22.58203125 C25.36663253 18.00236787 27.66063151 13.92389322 30.0625 9.6875 C30.52205078 8.86443359 30.98160156 8.04136719 31.45507812 7.19335938 C34.84527726 1.15472274 34.84527726 1.15472274 36 0 C38.33297433 -0.04092937 40.66705225 -0.04241723 43 0 C42.32945165 3.3469403 41.06227383 5.97460591 39.41796875 8.95703125 C38.89783203 9.90513672 38.37769531 10.85324219 37.84179688 11.83007812 C37.29587891 12.81427734 36.74996094 13.79847656 36.1875 14.8125 C35.65318359 15.78509766 35.11886719 16.75769531 34.56835938 17.75976562 C33.78235352 19.18772461 33.78235352 19.18772461 32.98046875 20.64453125 C32.47080566 21.57595947 31.96114258 22.5073877 31.43603516 23.46704102 C30.58726241 24.96415378 29.70356059 26.44373455 28.74755859 27.87475586 C25.32648762 33.0370859 25.34008323 37.94696522 25.25 43.9375 C25.20552734 45.3925293 25.20552734 45.3925293 25.16015625 46.87695312 C25.08997606 49.25138298 25.03702676 51.62486086 25 54 C22.69 54 20.38 54 18 54 C18.06453369 53.14341797 18.06453369 53.14341797 18.13037109 52.26953125 C19.14290602 34.88019425 14.28137181 23.67696572 4.60986328 9.40576172 C0 2.51683348 0 2.51683348 0 0 Z " fill="#0E185A" transform="translate(621,182)"/>
<path d="M0 0 C5.96313166 -0.02464574 11.92623395 -0.042834 17.8894043 -0.05493164 C19.91968298 -0.05997278 21.94995802 -0.06680557 23.98022461 -0.07543945 C26.89177347 -0.08751467 29.8032745 -0.09323034 32.71484375 -0.09765625 C33.6283812 -0.10281754 34.54191864 -0.10797882 35.48313904 -0.11329651 C37.65575427 -0.11349168 39.82827296 -0.06211805 42 0 C43 1 43 1 43 7 C37.06 7 31.12 7 25 7 C25 22.51 25 38.02 25 54 C22.69 54 20.38 54 18 54 C18 38.49 18 22.98 18 7 C12.06 7 6.12 7 0 7 C0 4.69 0 2.38 0 0 Z " fill="#0C185D" transform="translate(576,182)"/>
<path d="M0 0 C3.56586151 1.57973961 6.86485095 3.47258391 10.18359375 5.515625 C10.86808594 5.92361328 11.55257812 6.33160156 12.2578125 6.75195312 C17.30091451 9.81276652 17.30091451 9.81276652 18.43359375 12.078125 C15.55115952 13.78933266 12.6508551 15.46764372 9.74609375 17.140625 C8.92947266 17.62595703 8.11285156 18.11128906 7.27148438 18.61132812 C6.47548828 19.06572266 5.67949219 19.52011719 4.859375 19.98828125 C3.76749878 20.62455444 3.76749878 20.62455444 2.65356445 21.27368164 C-0.79146513 22.52204549 -3.27039039 21.68325783 -6.51098633 20.17016602 C-7.11322021 19.81108154 -7.7154541 19.45199707 -8.3359375 19.08203125 C-8.99658203 18.68822266 -9.65722656 18.29441406 -10.33789062 17.88867188 C-11.01142578 17.47681641 -11.68496094 17.06496094 -12.37890625 16.640625 C-13.07177734 16.23263672 -13.76464844 15.82464844 -14.47851562 15.40429688 C-16.21296078 14.35679453 -17.89518539 13.22380471 -19.56640625 12.078125 C-19.56640625 11.418125 -19.56640625 10.758125 -19.56640625 10.078125 C-17.01965922 8.08211674 -14.16345532 6.53221116 -11.37890625 4.890625 C-10.60998047 4.41431641 -9.84105469 3.93800781 -9.04882812 3.44726562 C-3.4119813 0.10386549 -3.4119813 0.10386549 0 0 Z " fill="#2E61E5" transform="translate(163.56640625,267.921875)"/>
<path d="M0 0 C1.98 0 3.96 0 6 0 C7 1 7 1 7.12025452 3.13233948 C7.11803391 4.07165817 7.11581329 5.01097687 7.11352539 5.97875977 C7.11344986 7.03978409 7.11337433 8.10080841 7.11329651 9.19398499 C7.10813522 10.348134 7.10297394 11.50228302 7.09765625 12.69140625 C7.0962413 13.86638168 7.09482635 15.04135712 7.09336853 16.25193787 C7.08774992 20.02215064 7.07519426 23.79230504 7.0625 27.5625 C7.0574874 30.11132727 7.05292408 32.66015547 7.04882812 35.20898438 C7.03777444 41.47267633 7.02101821 47.73633399 7 54 C4.69 54 2.38 54 0 54 C0 36.18 0 18.36 0 0 Z " fill="#0F1958" transform="translate(559,182)"/>
<path d="M0 0 C7.92 0 15.84 0 24 0 C23.67 0.66 23.34 1.32 23 2 C16.07 2 9.14 2 2 2 C2 32.03 2 62.06 2 93 C2.99 92.505 2.99 92.505 4 92 C7.63 92 11.26 92 15 92 C15 69.23 15 46.46 15 23 C15.33 23 15.66 23 16 23 C16.82410518 32.00617138 17.13649172 40.91586977 17.09765625 49.95703125 C17.0962413 51.22600754 17.09482635 52.49498383 17.09336853 53.80241394 C17.08876507 57.12805213 17.07982806 60.45361756 17.06866455 63.77923584 C17.05831753 67.19201031 17.05384285 70.60479239 17.04882812 74.01757812 C17.03787667 80.67840754 17.02065317 87.33919389 17 94 C11.39 94 5.78 94 0 94 C0 62.98 0 31.96 0 0 Z " fill="#171D50" transform="translate(296,65)"/>
<path d="M0 0 C11.22 0 22.44 0 34 0 C34.495 2.475 34.495 2.475 35 5 C31.83335334 5.02940458 28.66674253 5.04693315 25.5 5.0625 C24.613125 5.07087891 23.72625 5.07925781 22.8125 5.08789062 C17.44176914 5.10763596 12.31366337 4.78835893 7 4 C6.67 4.99 6.34 5.98 6 7 C5.34 7 4.68 7 4 7 C4.33 7.66 4.66 8.32 5 9 C5.07065617 11.04055005 5.08421976 13.08334257 5.0625 15.125 C5.05347656 16.22070312 5.04445313 17.31640625 5.03515625 18.4453125 C5.02355469 19.28835937 5.01195312 20.13140625 5 21 C4.01 21 3.02 21 2 21 C2 20.34 2 19.68 2 19 C1.34 19 0.68 19 0 19 C0 12.73 0 6.46 0 0 Z " fill="#0D185D" transform="translate(351,183)"/>
<path d="M0 0 C6.6 0 13.2 0 20 0 C20 8.91 20 17.82 20 27 C19.01 26.67 18.02 26.34 17 26 C17.33 18.08 17.66 10.16 18 2 C12.39 1.67 6.78 1.34 1 1 C1 50.5 1 100 1 151 C0.67 151 0.34 151 0 151 C0 101.17 0 51.34 0 0 Z " fill="#4763B7" transform="translate(105,51)"/>
<path d="M0 0 C7.59 0 15.18 0 23 0 C23 31.02 23 62.04 23 94 C17.39 94 11.78 94 6 94 C6 75.52 6 57.04 6 38 C6.33 38 6.66 38 7 38 C7.16830406 45.18978392 7.32817993 52.37971973 7.48217773 59.56982422 C7.53557055 62.01615652 7.59089777 64.4624474 7.64819336 66.90869141 C7.73017974 70.42341174 7.80522472 73.93822198 7.87890625 77.453125 C7.90594131 78.5480426 7.93297638 79.64296021 7.96083069 80.77105713 C7.98092697 81.79181335 8.00102325 82.81256958 8.02172852 83.86425781 C8.04171402 84.76138489 8.06169952 85.65851196 8.08229065 86.58282471 C8.00410089 88.87954204 7.65215213 90.8040879 7 93 C7.99 92.505 7.99 92.505 9 92 C12.96 92 16.92 92 21 92 C21 62.63 21 33.26 21 3 C10.50484308 2.31583564 10.50484308 2.31583564 0 2 C-0.33 2.66 -0.66 3.32 -1 4 C-0.67 2.68 -0.34 1.36 0 0 Z " fill="#161D4E" transform="translate(352,65)"/>
<path d="M0 0 C0 0.66 0 1.32 0 2 C-6 6 -6 6 -8.6875 5.625 C-9.450625 5.41875 -10.21375 5.2125 -11 5 C-11.433125 5.928125 -11.433125 5.928125 -11.875 6.875 C-13 9 -13 9 -15 11 C-15.5702098 12.33412724 -16.08730575 13.69165167 -16.5625 15.0625 C-17.90277778 18.90277778 -17.90277778 18.90277778 -19 20 C-19.1381536 21.5109339 -19.2093504 23.02806687 -19.25292969 24.54467773 C-19.28255798 25.51336288 -19.31218628 26.48204803 -19.3427124 27.48008728 C-19.36883606 28.53724442 -19.39495972 29.59440155 -19.421875 30.68359375 C-19.46371918 32.31059959 -19.46371918 32.31059959 -19.50640869 33.97047424 C-19.56295245 36.27639054 -19.61655172 38.58238059 -19.66748047 40.88842773 C-19.74893485 44.39168922 -19.8526814 47.89384083 -19.95703125 51.39648438 C-20.00920286 53.6379889 -20.06002558 55.87952531 -20.109375 58.12109375 C-20.14359558 59.16003281 -20.17781616 60.19897186 -20.21307373 61.26939392 C-20.35463061 69.5621562 -19.41065494 77.93510268 -13.875 84.5 C-11.01265823 87.97468354 -11.01265823 87.97468354 -10 90 C-14.6601711 88.1692185 -16.9834581 85.21619127 -19.0528717 80.7046051 C-21.76760507 73.74972966 -22.5791043 67.77005106 -22.49609375 60.33984375 C-22.49754898 59.26932266 -22.49900421 58.19880157 -22.50050354 57.09584045 C-22.49885521 54.84959164 -22.48741483 52.60333027 -22.46655273 50.35717773 C-22.4375442 46.94270305 -22.44597892 43.52978014 -22.45898438 40.11523438 C-22.45274693 37.91926338 -22.44435595 35.72329723 -22.43359375 33.52734375 C-22.43652939 32.51977524 -22.43946503 31.51220673 -22.44248962 30.47410583 C-22.32658924 21.65854503 -20.91330308 12.8722171 -15 6 C-10.1872001 2.41475635 -6.13263846 0 0 0 Z " fill="#131A51" transform="translate(551,65)"/>
<path d="M0 0 C5.96313166 -0.02464574 11.92623395 -0.042834 17.8894043 -0.05493164 C19.91968298 -0.05997278 21.94995802 -0.06680557 23.98022461 -0.07543945 C26.89177347 -0.08751467 29.8032745 -0.09323034 32.71484375 -0.09765625 C33.6283812 -0.10281754 34.54191864 -0.10797882 35.48313904 -0.11329651 C37.65575427 -0.11349168 39.82827296 -0.06211805 42 0 C43 1 43 1 43 7 C37.72 7 32.44 7 27 7 C27 6.67 27 6.34 27 6 C33.435 5.505 33.435 5.505 40 5 C40.33 3.68 40.66 2.36 41 1 C27.8 1 14.6 1 1 1 C1 2.65 1 4.3 1 6 C6.94 6 12.88 6 19 6 C19.80684826 9.22739305 20.10656853 11.1962999 20.02172852 14.40136719 C19.99158409 15.6922525 19.99158409 15.6922525 19.96083069 17.00921631 C19.92027809 18.38910736 19.92027809 18.38910736 19.87890625 19.796875 C19.85529526 20.74564514 19.83168427 21.69441528 19.80735779 22.67193604 C19.73087006 25.69811521 19.64678153 28.72402884 19.5625 31.75 C19.50926442 33.80337248 19.45652412 35.85675787 19.40429688 37.91015625 C19.27527502 42.94027188 19.13943665 47.97016273 19 53 C20.65 53 22.3 53 24 53 C24 38.48 24 23.96 24 9 C24.33 9 24.66 9 25 9 C25 23.85 25 38.7 25 54 C22.69 54 20.38 54 18 54 C18 38.49 18 22.98 18 7 C12.06 7 6.12 7 0 7 C0 4.69 0 2.38 0 0 Z " fill="#161D4E" transform="translate(576,182)"/>
<path d="M0 0 C1.65 0 3.3 0 5 0 C5.33 13.53 5.66 27.06 6 41 C5.01 40.67 4.02 40.34 3 40 C3.0928125 38.824375 3.0928125 38.824375 3.1875 37.625 C3.125625 36.75875 3.06375 35.8925 3 35 C2.01 34.34 1.02 33.68 0 33 C-0.26711404 30.44604513 -0.34849029 28.13725626 -0.29296875 25.5859375 C-0.28872391 24.85629791 -0.28447906 24.12665833 -0.28010559 23.37490845 C-0.26329353 21.04123241 -0.22563868 18.7084156 -0.1875 16.375 C-0.17245634 14.79428329 -0.15876738 13.21355307 -0.14648438 11.6328125 C-0.11338201 7.75487656 -0.06158404 3.87758402 0 0 Z " fill="#0C185D" transform="translate(452,183)"/>
<path d="M0 0 C0.99 0.495 0.99 0.495 2 1 C2.02313398 12.56961328 2.0409205 24.1392211 2.05181217 35.70885277 C2.05703868 41.08064972 2.06413214 46.45243089 2.07543945 51.82421875 C2.08627654 57.00482972 2.09227859 62.18542548 2.09487724 67.36604691 C2.09673 69.34606796 2.10034778 71.32608815 2.10573006 73.30610275 C2.11295136 76.07176283 2.11399048 78.83735941 2.11352539 81.60302734 C2.11712067 82.42805252 2.12071594 83.2530777 2.12442017 84.10310364 C2.11405216 89.77189568 2.11405216 89.77189568 1 92 C6.61 92.33 12.22 92.66 18 93 C17.67 82.44 17.34 71.88 17 61 C16.34 60.67 15.68 60.34 15 60 C15.33 59.01 15.66 58.02 16 57 C22.625 56.875 22.625 56.875 26 58 C26.33 59.98 26.66 61.96 27 64 C25 61 25 61 25 59 C23.02 59 21.04 59 19 59 C19 70.55 19 82.1 19 94 C12.73 94 6.46 94 0 94 C0 62.98 0 31.96 0 0 Z " fill="#141B4B" transform="translate(603,65)"/>
<path d="M0 0 C0.87454834 0.00523682 1.74909668 0.01047363 2.65014648 0.01586914 C3.59438477 0.0190918 4.53862305 0.02231445 5.51147461 0.02563477 C6.50469727 0.03401367 7.49791992 0.04239258 8.52124023 0.05102539 C9.51833008 0.05553711 10.51541992 0.06004883 11.54272461 0.06469727 C14.01478872 0.07652532 16.48673541 0.0930069 18.95874023 0.11352539 C18.95874023 0.44352539 18.95874023 0.77352539 18.95874023 1.11352539 C12.35874023 1.44352539 5.75874023 1.77352539 -1.04125977 2.11352539 C-1.04125977 18.28352539 -1.04125977 34.45352539 -1.04125977 51.11352539 C-0.05125977 51.11352539 0.93874023 51.11352539 1.95874023 51.11352539 C2.28874023 48.80352539 2.61874023 46.49352539 2.95874023 44.11352539 C3.28874023 44.11352539 3.61874023 44.11352539 3.95874023 44.11352539 C3.95874023 47.41352539 3.95874023 50.71352539 3.95874023 54.11352539 C1.64874023 54.11352539 -0.66125977 54.11352539 -3.04125977 54.11352539 C-3.06652624 46.58382887 -3.08409118 39.05414319 -3.09619141 31.52441406 C-3.10123347 28.96060782 -3.10806691 26.39680448 -3.11669922 23.83300781 C-3.12877041 20.15697518 -3.13448919 16.48098041 -3.13891602 12.80493164 C-3.1440773 11.65078262 -3.14923859 10.49663361 -3.15455627 9.30751038 C-3.15463181 8.24648605 -3.15470734 7.18546173 -3.15478516 6.09228516 C-3.15700577 5.15296646 -3.15922638 4.21364777 -3.16151428 3.24586487 C-3.00213999 0.41985795 -2.82652616 0.15719826 0 0 Z " fill="#131A51" transform="translate(510.041259765625,181.886474609375)"/>
<path d="M0 0 C8.91 0 17.82 0 27 0 C27 15.84 27 31.68 27 48 C23.04 48 19.08 48 15 48 C14.67 46.35 14.34 44.7 14 43 C14.66 44.32 15.32 45.64 16 47 C19.3 47 22.6 47 26 47 C26 31.82 26 16.64 26 1 C21.545 1.495 21.545 1.495 17 2 C14.31315942 2.06307138 11.62497169 2.08671146 8.9375 2.0625 C7.62652344 2.05347656 6.31554687 2.04445313 4.96484375 2.03515625 C3.98644531 2.02355469 3.00804687 2.01195313 2 2 C2 3.98 2 5.96 2 8 C4.31 8 6.62 8 9 8 C9 8.66 9 9.32 9 10 C6.03 10 3.06 10 0 10 C0 6.7 0 3.4 0 0 Z " fill="#141B4B" transform="translate(489,111)"/>
<path d="M0 0 C4.30764815 1.56641751 8.06171464 3.68336156 12 6 C8.4301466 9.86905871 3.9559513 12.13844869 -0.5625 14.75 C-1.43841797 15.26949219 -2.31433594 15.78898438 -3.21679688 16.32421875 C-4.47266602 17.05318359 -4.47266602 17.05318359 -5.75390625 17.796875 C-6.90354858 18.46734863 -6.90354858 18.46734863 -8.07641602 19.15136719 C-8.71119873 19.43141602 -9.34598145 19.71146484 -10 20 C-10.66 19.67 -11.32 19.34 -12 19 C-11.01 18.67 -10.02 18.34 -9 18 C-9 17.34 -9 16.68 -9 16 C-8.01 16 -7.02 16 -6 16 C-6 15.01 -6 14.02 -6 13 C-5.34 13 -4.68 13 -4 13 C-4 12.34 -4 11.68 -4 11 C-3.34 11 -2.68 11 -2 11 C-1.855625 9.9275 -1.71125 8.855 -1.5625 7.75 C-1.16250558 5.08337051 -0.72408076 2.58600271 0 0 Z " fill="#2A62E4" transform="translate(140,235)"/>
<path d="M0 0 C-0.33 0.99 -0.66 1.98 -1 3 C-3.48280777 3.92104159 -5.97649647 4.46102469 -8.5546875 5.05859375 C-11.49558142 6.19079093 -12.34099757 7.37035734 -14 10 C-14.680625 10.9075 -15.36125 11.815 -16.0625 12.75 C-20.22997185 19.74059794 -20.29002451 26.81886706 -20.23046875 34.73828125 C-20.23001053 35.74086472 -20.22955231 36.74344818 -20.2290802 37.77641296 C-20.22607487 39.88163446 -20.21824053 41.98685407 -20.20581055 44.09204102 C-20.1874579 47.31990386 -20.1853018 50.54748083 -20.18554688 53.77539062 C-20.18063452 55.82552332 -20.17480744 57.87565407 -20.16796875 59.92578125 C-20.16685593 60.89139481 -20.1657431 61.85700836 -20.16459656 62.85188293 C-20.15821671 63.7467894 -20.15183685 64.64169586 -20.14526367 65.5637207 C-20.14145187 66.35011429 -20.13764008 67.13650787 -20.13371277 67.94673157 C-20.07419626 70.20059434 -20.07419626 70.20059434 -19 73 C-19.66 73.99 -20.32 74.98 -21 76 C-21.74021014 72.67756119 -22.13250927 69.58647759 -22.16113281 66.18481445 C-22.17074036 65.25647293 -22.1803479 64.32813141 -22.19024658 63.37165833 C-22.19449646 62.37889389 -22.19874634 61.38612946 -22.203125 60.36328125 C-22.20882507 59.32866257 -22.21452515 58.29404388 -22.22039795 57.22807312 C-22.22983131 55.04016131 -22.23637531 52.85223539 -22.24023438 50.66430664 C-22.24991492 47.34170259 -22.28094441 44.019724 -22.3125 40.69726562 C-22.31903332 38.56510781 -22.3242825 36.43294561 -22.328125 34.30078125 C-22.3404718 33.31813797 -22.3528186 32.33549469 -22.36553955 31.32307434 C-22.33706298 22.36475544 -20.7588145 14.11382968 -15 7 C-10.82156731 3.04742854 -5.87797322 0 0 0 Z " fill="#141B50" transform="translate(480,65)"/>
<path d="M0 0 C2.0625 0.4375 2.0625 0.4375 4 1 C3.745504 2.48206495 3.47088238 3.96068615 3.1875 5.4375 C3.03667969 6.26121094 2.88585937 7.08492188 2.73046875 7.93359375 C2.48941406 8.61550781 2.24835938 9.29742187 2 10 C-1.28976808 11.09658936 -2.71303767 10.79953138 -6 10 C-6.33 8.02 -6.66 6.04 -7 4 C-6.030625 3.525625 -5.06125 3.05125 -4.0625 2.5625 C-1.19522563 1.29806053 -1.19522563 1.29806053 0 0 Z " fill="#2760EA" transform="translate(155,273)"/>
<path d="M0 0 C0.99 0.33 1.98 0.66 3 1 C2.67 1.66 2.34 2.32 2 3 C1.84824451 4.59262066 1.75099675 6.19064856 1.68359375 7.7890625 C1.64169922 8.73007813 1.59980469 9.67109375 1.55664062 10.640625 C1.49766602 12.11789063 1.49766602 12.11789063 1.4375 13.625 C1.39431641 14.61757812 1.35113281 15.61015625 1.30664062 16.6328125 C1.20038931 19.08839838 1.09835036 21.54408703 1 24 C-1.31 24 -3.62 24 -6 24 C-6 16.74 -6 9.48 -6 2 C-4 4 -4 4 -3.77294922 5.87939453 C-3.78342285 6.62302246 -3.79389648 7.36665039 -3.8046875 8.1328125 C-3.81113281 8.93847656 -3.81757812 9.74414062 -3.82421875 10.57421875 C-3.84097656 11.41597656 -3.85773437 12.25773438 -3.875 13.125 C-3.88402344 13.97449219 -3.89304687 14.82398438 -3.90234375 15.69921875 C-3.92594353 17.79959884 -3.96181517 19.89983444 -4 22 C-2.68 22 -1.36 22 0 22 C-0.05329468 21.16021606 -0.05329468 21.16021606 -0.10766602 20.3034668 C-0.26534043 17.76514558 -0.41401707 15.22637477 -0.5625 12.6875 C-0.61857422 11.80642578 -0.67464844 10.92535156 -0.73242188 10.01757812 C-0.78076172 9.17001953 -0.82910156 8.32246094 -0.87890625 7.44921875 C-0.9260376 6.66893311 -0.97316895 5.88864746 -1.02172852 5.0847168 C-1 3 -1 3 0 0 Z " fill="#10194D" transform="translate(645,212)"/>
<path d="M0 0 C2.31 0.33 4.62 0.66 7 1 C7 1.66 7 2.32 7 3 C8.98 2.67 10.96 2.34 13 2 C13.12375 2.639375 13.2475 3.27875 13.375 3.9375 C13.58125 4.618125 13.7875 5.29875 14 6 C14.66 6.33 15.32 6.66 16 7 C16 7.66 16 8.32 16 9 C18.475 9.495 18.475 9.495 21 10 C21.33 9.34 21.66 8.68 22 8 C24.31 8 26.62 8 29 8 C23.70503053 12.55955704 23.70503053 12.55955704 20 13 C18.03295898 12.24316406 18.03295898 12.24316406 15.99609375 11.015625 C15.25552734 10.57476562 14.51496094 10.13390625 13.75195312 9.6796875 C12.98818359 9.20789063 12.22441406 8.73609375 11.4375 8.25 C10.66986328 7.79367187 9.90222656 7.33734375 9.11132812 6.8671875 C5.70697043 4.81329428 2.73268933 2.91670703 0 0 Z " fill="#355ED8" transform="translate(189,250)"/>
<path d="M0 0 C4.95 0 9.9 0 15 0 C15 8.91 15 17.82 15 27 C14.01 26.67 13.02 26.34 12 26 C12.33 18.08 12.66 10.16 13 2 C8.71 1.67 4.42 1.34 0 1 C0 0.67 0 0.34 0 0 Z " fill="#3C65CD" transform="translate(110,51)"/>
<path d="M0 0 C0.33 0 0.66 0 1 0 C1.00586624 0.6233876 1.01173248 1.24677521 1.01777649 1.88905334 C1.08185723 8.39467345 1.16631486 14.89980559 1.26245117 21.4050293 C1.29564466 23.83074498 1.32369384 26.25653686 1.34643555 28.68237305 C1.38008331 32.17529684 1.43240631 35.66752585 1.48828125 39.16015625 C1.49467117 40.23959 1.5010611 41.31902374 1.50764465 42.4311676 C1.62432059 48.44664184 2.32127846 52.62161896 5 58 C5 58.99 5 59.98 5 61 C4.67 60.34 4.34 59.68 4 59 C3.34 59 2.68 59 2 59 C-0.25779693 55.6133046 -0.24486783 54.48309149 -0.22705078 50.51879883 C-0.22689972 49.39786331 -0.22674866 48.2769278 -0.22659302 47.12202454 C-0.21627045 45.91257675 -0.20594788 44.70312897 -0.1953125 43.45703125 C-0.1924826 42.21829758 -0.18965271 40.9795639 -0.18673706 39.70329285 C-0.17743186 36.41361913 -0.15946791 33.12414137 -0.1373291 29.83453369 C-0.1168527 26.47630206 -0.10773152 23.11804172 -0.09765625 19.75976562 C-0.07558271 13.17310027 -0.04209522 6.58656617 0 0 Z " fill="#161B50" transform="translate(547,88)"/>
<path d="M0 0 C-0.33 0.99 -0.66 1.98 -1 3 C-2.32303717 3.3721042 -3.65737935 3.70630173 -5 4 C-5.33 4.66 -5.66 5.32 -6 6 C-5.01 6.33 -4.02 6.66 -3 7 C-3 7.99 -3 8.98 -3 10 C-1.35 10.33 0.3 10.66 2 11 C2 12.32 2 13.64 2 15 C-2.97209562 13.23570801 -7.43438061 10.6060834 -12 8 C-10.77974937 4.3392481 -9.873509 4.07660559 -6.5625 2.3125 C-5.75941406 1.87550781 -4.95632812 1.43851563 -4.12890625 0.98828125 C-2 0 -2 0 0 0 Z " fill="#3560D5" transform="translate(186,200)"/>
<path d="M0 0 C2.97 0.99 5.94 1.98 9 3 C9 3.66 9 4.32 9 5 C12.63 5.66 16.26 6.32 20 7 C20.33 7.99 20.66 8.98 21 10 C22.62652316 11.70586575 24.29006566 13.3777546 26 15 C19.92815363 13.39630636 14.93496211 10.17574365 9.625 6.9375 C8.69816406 6.38255859 7.77132812 5.82761719 6.81640625 5.25585938 C1.79290878 2.21882593 1.79290878 2.21882593 0 1 C0 0.67 0 0.34 0 0 Z " fill="#375ED6" transform="translate(151,228)"/>
<path d="M0 0 C0.66 0 1.32 0 2 0 C1.67 0.99 1.34 1.98 1 3 C0.88624128 4.48770605 0.82392798 5.97967324 0.79467773 7.47143555 C0.7647599 8.82249641 0.7647599 8.82249641 0.73423767 10.20085144 C0.70916893 11.65410576 0.70916893 11.65410576 0.68359375 13.13671875 C0.66281265 14.13129593 0.64203156 15.12587311 0.62062073 16.15058899 C0.55520588 19.32948867 0.4962776 22.50847134 0.4375 25.6875 C0.39430712 27.84180548 0.35069258 29.99610254 0.30664062 32.15039062 C0.19953274 37.43350588 0.09775127 42.71670379 0 48 C-0.33 48 -0.66 48 -1 48 C-1.02526945 41.3247966 -1.04283268 34.64960543 -1.05493164 27.97436523 C-1.05997325 25.70157409 -1.06680637 23.4287862 -1.07543945 21.15600586 C-1.08751261 17.89696449 -1.09322987 14.63796583 -1.09765625 11.37890625 C-1.10281754 10.35599991 -1.10797882 9.33309357 -1.11329651 8.27919006 C-1.11337204 7.33829025 -1.11344757 6.39739044 -1.11352539 5.42797852 C-1.115746 4.59524918 -1.11796661 3.76251984 -1.12025452 2.90455627 C-1 1 -1 1 0 0 Z " fill="#3761DC" transform="translate(155,30)"/>
<path d="M0 0 C2.31625061 1.11777771 4.62784605 2.24374092 6.9375 3.375 C7.59685547 3.69210938 8.25621094 4.00921875 8.93554688 4.3359375 C13.88671875 6.7734375 13.88671875 6.7734375 15 9 C14.08476562 8.9278125 13.16953125 8.855625 12.2265625 8.78125 C10.44378906 8.64203125 10.44378906 8.64203125 8.625 8.5 C7.44164062 8.4071875 6.25828125 8.314375 5.0390625 8.21875 C3.36213157 8.09804546 1.68126944 8 0 8 C0.50603992 5.83125748 0.99983813 4.00032373 2 2 C1.34 2 0.68 2 0 2 C0 1.34 0 0.68 0 0 Z " fill="#3361DC" transform="translate(138,199)"/>
<path d="M0 0 C4.76551013 1.37605916 8.7248553 3.46778066 12.875 6.125 C13.46796875 6.49753906 14.0609375 6.87007812 14.671875 7.25390625 C16.1181343 8.16365 17.55958046 9.08103798 19 10 C16.50907189 11.24546405 15.58919267 10.7767578 13 10 C13 9.34 13 8.68 13 8 C12.236875 8.20625 11.47375 8.4125 10.6875 8.625 C8 9 8 9 5 7 C5 5.68 5 4.36 5 3 C3.35 2.67 1.7 2.34 0 2 C0 1.34 0 0.68 0 0 Z " fill="#3860D9" transform="translate(172,219)"/>
<path d="M0 0 C0.33 0 0.66 0 1 0 C0.88444496 1.70899819 0.75706997 3.41719869 0.625 5.125 C0.55539062 6.07632813 0.48578125 7.02765625 0.4140625 8.0078125 C0 11 0 11 -2 17 C-7.94 17 -13.88 17 -20 17 C-20 16.67 -20 16.34 -20 16 C-18.85660156 15.93941406 -17.71320313 15.87882813 -16.53515625 15.81640625 C-15.04425695 15.73201572 -13.55337225 15.64736698 -12.0625 15.5625 C-11.30775391 15.52318359 -10.55300781 15.48386719 -9.77539062 15.44335938 C-6.08055813 15.55961976 -6.08055813 15.55961976 -3 14 C-2.62831518 11.839582 -2.30208609 9.67124378 -2 7.5 C-1.11111111 1.11111111 -1.11111111 1.11111111 0 0 Z " fill="#151B4D" transform="translate(406,142)"/>
<path d="M0 0 C0.72445312 0.40992188 1.44890625 0.81984375 2.1953125 1.2421875 C7.04492014 3.94503549 11.62663575 6.48443572 17 8 C17.66 8.33 18.32 8.66 19 9 C16.69 9.66 14.38 10.32 12 11 C12 10.01 12 9.02 12 8 C10.02 8.33 8.04 8.66 6 9 C5.67 7.35 5.34 5.7 5 4 C4.01 4 3.02 4 2 4 C2 3.34 2 2.68 2 2 C1.34 2 0.68 2 0 2 C0 1.34 0 0.68 0 0 Z " fill="#3461D4" transform="translate(194,231)"/>
<path d="M0 0 C3.91025991 0.57929776 6.16056336 2.3061755 9 5 C11.61739561 9.15173096 12.34899765 12.11403288 12 17 C10 13.25 10 13.25 10 11 C7.525 10.01 7.525 10.01 5 9 C5.33 7.68 5.66 6.36 6 5 C4.02 4.01 2.04 3.02 0 2 C0 1.34 0 0.68 0 0 Z " fill="#111950" transform="translate(502,67)"/>
<path d="M0 0 C3.79235994 1.48985569 5.80565887 3.58658047 8 7 C7.75 9.3125 7.75 9.3125 7 11 C5.02 11.33 3.04 11.66 1 12 C0.01 10.02 -0.98 8.04 -2 6 C-1.01 6.33 -0.02 6.66 1 7 C1 7.66 1 8.32 1 9 C2.32 9 3.64 9 5 9 C4.21869929 6.50447516 4.21869929 6.50447516 3 4 C2.01 3.67 1.02 3.34 0 3 C0 2.01 0 1.02 0 0 Z " fill="#111A4A" transform="translate(431,185)"/>
<path d="M0 0 C0.66 0.33 1.32 0.66 2 1 C-0.86085748 4.59914328 -2.98207184 6.33410392 -7.5 6.9375 C-11.13041333 7.16781003 -13.75227293 6.78101162 -17 5 C-17 4.34 -17 3.68 -17 3 C-17.66 3 -18.32 3 -19 3 C-18.67 2.34 -18.34 1.68 -18 1 C-16.96875 1.70125 -15.9375 2.4025 -14.875 3.125 C-11.94728516 4.7954502 -11.34352122 5.06183382 -7.875 4.4375 C-4.97563542 3.03970524 -4.97563542 3.03970524 -2.25 1.3125 C-1.13625 0.6628125 -1.13625 0.6628125 0 0 Z " fill="#375ECE" transform="translate(125,234)"/>
<path d="M0 0 C0.66 0.33 1.32 0.66 2 1 C1.375 2.9375 1.375 2.9375 0 5 C-3.125 5.75 -3.125 5.75 -6 6 C-6 6.66 -6 7.32 -6 8 C-8.70879335 9.35439668 -11.00933268 9.06501451 -14 9 C-9.80022081 5.3421278 -5.12798061 2.20634136 0 0 Z " fill="#375FD7" transform="translate(246,219)"/>
<path d="M0 0 C2.31625061 1.11777771 4.62784605 2.24374092 6.9375 3.375 C7.59685547 3.69210938 8.25621094 4.00921875 8.93554688 4.3359375 C13.88671875 6.7734375 13.88671875 6.7734375 15 9 C6.06466877 8.80914826 6.06466877 8.80914826 1.875 5.625 C0 3 0 3 0 0 Z " fill="#365FDA" transform="translate(157,210)"/>
<path d="M0 0 C2.64 1.32 5.28 2.64 8 4 C4.74190431 7.25809569 2.04733782 8.86594915 -2 11 C-2.66 11 -3.32 11 -4 11 C-3.67 9.68 -3.34 8.36 -3 7 C0.465 6.505 0.465 6.505 4 6 C4 5.01 4 4.02 4 3 C2.68 2.67 1.36 2.34 0 2 C0 1.34 0 0.68 0 0 Z " fill="#3C5DCC" transform="translate(144,237)"/>
<path d="M0 0 C0.99 0.33 1.98 0.66 3 1 C2.745504 2.48206495 2.47088238 3.96068615 2.1875 5.4375 C2.03667969 6.26121094 1.88585937 7.08492188 1.73046875 7.93359375 C1.48941406 8.61550781 1.24835938 9.29742187 1 10 C0.01 10.33 -0.98 10.66 -2 11 C-2.66 10.67 -3.32 10.34 -4 10 C-4 9.01 -4 8.02 -4 7 C-3.01 7 -2.02 7 -1 7 C-1 5.68 -1 4.36 -1 3 C-0.67 2.01 -0.34 1.02 0 0 Z " fill="#3262F0" transform="translate(156,273)"/>
<path d="M0 0 C0.33 0 0.66 0 1 0 C0.93489583 2.01822917 0.86979167 4.03645833 0.8046875 6.0546875 C0.81668311 8.23863645 0.81668311 8.23863645 3 10 C2.01 10.33 1.02 10.66 0 11 C-0.33 12.98 -0.66 14.96 -1 17 C-1.66 17 -2.32 17 -3 17 C-3.33 17.66 -3.66 18.32 -4 19 C-3.37968409 12.42465139 -1.85102717 6.33307408 0 0 Z " fill="#131A52" transform="translate(341,98)"/>
<path d="M0 0 C2.29679188 1.09442433 4.58704964 2.19986661 6.875 3.3125 C7.52597656 3.62123047 8.17695313 3.92996094 8.84765625 4.24804688 C12.19676398 5.88807385 13.89005879 6.83508818 16 10 C14.68 10.33 13.36 10.66 12 11 C11.67 10.01 11.34 9.02 11 8 C7.46503667 5.99149811 3.79391905 4.45061611 0 3 C0 2.01 0 1.02 0 0 Z " fill="#395BC8" transform="translate(166,270)"/>
<path d="M0 0 C0.99 0.33 1.98 0.66 3 1 C-2.75 6 -2.75 6 -5 6 C-4.34 7.98 -3.68 9.96 -3 12 C-4.65 12 -6.3 12 -8 12 C-7.1517761 7.6740581 -6.42346167 4.96064862 -3.0625 2 C-2.051875 1.34 -1.04125 0.68 0 0 Z " fill="#121A50" transform="translate(649,115)"/>
<path d="M0 0 C4.29 0.33 8.58 0.66 13 1 C9.08823529 4.91176471 9.08823529 4.91176471 6 5 C2.75 3.125 2.75 3.125 0 1 C0 0.67 0 0.34 0 0 Z " fill="#395ED1" transform="translate(108,258)"/>
<path d="M0 0 C1.20527344 0.00386719 2.41054688 0.00773438 3.65234375 0.01171875 C6.88478975 0.29682567 9.15343456 0.92696788 12.0625 2.3125 C8.78154237 3.40615254 8.22419151 3.15638841 5.0625 2.3125 C3.33518559 2.22228696 1.60466105 2.18239022 -0.125 2.1875 C-1.00542969 2.18492187 -1.88585937 2.18234375 -2.79296875 2.1796875 C-4.91953191 2.07384967 -4.91953191 2.07384967 -5.9375 3.3125 C-7.60367115 3.35313832 -9.27138095 3.355221 -10.9375 3.3125 C-7.42699775 -0.00540612 -4.73299316 -0.06566586 0 0 Z " fill="#141B50" transform="translate(418.9375,181.6875)"/>
<path d="M0 0 C3.62896548 2.8845623 5.33652215 5.01009277 5.9375 9.5625 C6.26701734 13.01943651 5.74834865 14.99991536 4 18 C3.96261719 17.34773438 3.92523437 16.69546875 3.88671875 16.0234375 C3.48187768 10.64143271 2.73614693 6.75851639 0 2 C0 1.34 0 0.68 0 0 Z " fill="#101A4A" transform="translate(539,186)"/>
<path d="M0 0 C2.7839183 1.39195915 2.97898997 3.15575779 4 6 C7.5219721 6.08004482 10.61981469 6.04005702 14 5 C14 5.99 14 6.98 14 8 C10.04 8 6.08 8 2 8 C0 4 0 4 0 0 Z " fill="#151A4C" transform="translate(328,139)"/>
<path d="M0 0 C6.90546218 6.54201681 6.90546218 6.54201681 7.125 12.25 C7.08375 13.1575 7.0425 14.065 7 15 C5.81931925 12.6386385 4.73279971 10.33199926 3.75 7.875 C2.21424886 4.727975 2.21424886 4.727975 -1.1875 3.625 C-2.115625 3.41875 -3.04375 3.2125 -4 3 C-2.68 2.67 -1.36 2.34 0 2 C0 1.34 0 0.68 0 0 Z " fill="#0E184D" transform="translate(562,73)"/>
<path d="M0 0 C3 3.75 3 3.75 3 6 C-3.27 6 -9.54 6 -16 6 C-16.33 5.34 -16.66 4.68 -17 4 C-11.39 4.33 -5.78 4.66 0 5 C0 3.35 0 1.7 0 0 Z " fill="#171E48" transform="translate(659,153)"/>
<path d="M0 0 C0.66 0.33 1.32 0.66 2 1 C-2.625 5 -2.625 5 -6 5 C-5.67 6.65 -5.34 8.3 -5 10 C-7.475 9.01 -7.475 9.01 -10 8 C-10 7.34 -10 6.68 -10 6 C-7.8828125 4.45703125 -7.8828125 4.45703125 -5.125 2.8125 C-4.22007812 2.26207031 -3.31515625 1.71164062 -2.3828125 1.14453125 C-1.20332031 0.57798828 -1.20332031 0.57798828 0 0 Z " fill="#305DC8" transform="translate(154,272)"/>
<path d="M0 0 C-0.33 1.65 -0.66 3.3 -1 5 C-4.3 5.33 -7.6 5.66 -11 6 C-3.8 0 -3.8 0 0 0 Z " fill="#3560D9" transform="translate(224,233)"/>
<path d="M0 0 C0 0.99 0 1.98 0 3 C-6.93 2.505 -6.93 2.505 -14 2 C-10.05392073 -1.94607927 -5.11635166 -1.09636107 0 0 Z " fill="#101953" transform="translate(428,187)"/>
<path d="M0 0 C1.98 0.66 3.96 1.32 6 2 C6 2.99 6 3.98 6 5 C3 7 3 7 0 7 C0 4.69 0 2.38 0 0 Z " fill="#2B63EB" transform="translate(142,238)"/>
<path d="M0 0 C1.134375 0.020625 2.26875 0.04125 3.4375 0.0625 C2.73195932 3.73131155 1.16014494 6.76700534 -0.5625 10.0625 C-0.8925 10.0625 -1.2225 10.0625 -1.5625 10.0625 C-1.5625 8.4125 -1.5625 6.7625 -1.5625 5.0625 C-0.9025 5.0625 -0.2425 5.0625 0.4375 5.0625 C0.1075 4.0725 -0.2225 3.0825 -0.5625 2.0625 C-2.57758358 1.32926204 -2.57758358 1.32926204 -4.5625 1.0625 C-3.5625 0.0625 -3.5625 0.0625 0 0 Z " fill="#151B4F" transform="translate(660.5625,181.9375)"/>
<path d="M0 0 C1.31052767 4.30422506 0.45785552 7.9370534 -0.4375 12.25 C-0.58509766 12.99507812 -0.73269531 13.74015625 -0.88476562 14.5078125 C-1.2488694 16.34007665 -1.62341409 18.17026053 -2 20 C-4 17 -4 17 -3.72265625 14.70703125 C-3.48417969 13.81371094 -3.24570312 12.92039062 -3 12 C-2.75121094 10.97261719 -2.50242187 9.94523437 -2.24609375 8.88671875 C-1.97925781 7.83097656 -1.71242188 6.77523437 -1.4375 5.6875 C-1.16808594 4.61886719 -0.89867187 3.55023438 -0.62109375 2.44921875 C-0.41613281 1.64097656 -0.21117187 0.83273438 0 0 Z " fill="#151A4F" transform="translate(414,100)"/>
<path d="M0 0 C2.625 0.3125 2.625 0.3125 4.4375 2.1875 C5.625 4.3125 5.625 4.3125 5.625 6.3125 C1.84954612 5.22181332 -0.84543472 4.4041909 -3.375 1.3125 C-2.375 0.3125 -2.375 0.3125 0 0 Z " fill="#385FD6" transform="translate(112.375,202.6875)"/>
<path d="M0 0 C1.98 0 3.96 0 6 0 C3.20283196 3.29078593 -0.19528578 5.06305458 -4 7 C-4.66 6.67 -5.32 6.34 -6 6 C-5.01 5.67 -4.02 5.34 -3 5 C-3 4.34 -3 3.68 -3 3 C-2.01 3 -1.02 3 0 3 C0 2.01 0 1.02 0 0 Z " fill="#395FD4" transform="translate(134,248)"/>
<path d="M0 0 C2.64 1.32 5.28 2.64 8 4 C4.0770772 4.9807307 3.5342548 4.96388767 0 4 C-1.66623639 3.96213099 -3.33397597 3.95372155 -5 4 C-3.35 2.68 -1.7 1.36 0 0 Z " fill="#355FD3" transform="translate(132,230)"/>
<path d="M0 0 C1.65 0 3.3 0 5 0 C5 1.65 5 3.3 5 5 C3.35 5 1.7 5 0 5 C0 3.35 0 1.7 0 0 Z " fill="#0D175E" transform="translate(624,184)"/>
<path d="M0 0 C0.33 0.66 0.66 1.32 1 2 C-3.14285714 8.42857143 -3.14285714 8.42857143 -6 11 C-6.66 10.67 -7.32 10.34 -8 10 C-7.38125 9.443125 -6.7625 8.88625 -6.125 8.3125 C-3.92820855 5.92187402 -3.13347983 3.99562527 -2 1 C-1.34 0.67 -0.68 0.34 0 0 Z " fill="#121950" transform="translate(583,144)"/>
<path d="M0 0 C0.99 0 1.98 0 3 0 C3.66 1.98 4.32 3.96 5 6 C2.08482708 4.92598892 0.22189824 4.22189824 -2 2 C-1.34 1.34 -0.68 0.68 0 0 Z " fill="#335FDF" transform="translate(75,236)"/>
<path d="M0 0 C4 4.625 4 4.625 4 8 C4.66 8.33 5.32 8.66 6 9 C6.625 11.0625 6.625 11.0625 7 13 C4 12 4 12 2.83203125 10.0390625 C2.49558594 9.24242187 2.15914062 8.44578125 1.8125 7.625 C1.46832031 6.83351562 1.12414062 6.04203125 0.76953125 5.2265625 C0 3 0 3 0 0 Z " fill="#10184E" transform="translate(637,144)"/>
<path d="M0 0 C1.32 1.32 2.64 2.64 4 4 C2.02 4.33 0.04 4.66 -2 5 C-2.66 4.01 -3.32 3.02 -4 2 C-2.68 1.34 -1.36 0.68 0 0 Z " fill="#3261EF" transform="translate(173,277)"/>
<path d="M0 0 C2.52394612 3.12488567 4.39701907 6.31314387 6 10 C5.67 10.66 5.34 11.32 5 12 C0.07692308 6.83076923 0.07692308 6.83076923 -0.3125 2.625 C-0.209375 1.75875 -0.10625 0.8925 0 0 Z " fill="#13194F" transform="translate(646,127)"/>
<path d="M0 0 C3.34298992 1.67149496 3.81118736 4.60339247 5 8 C4.6875 10.9375 4.6875 10.9375 4 13 C2.42445965 10.11371599 1.53723627 7.46657616 0.875 4.25 C0.70742188 3.45078125 0.53984375 2.6515625 0.3671875 1.828125 C0.24601562 1.22484375 0.12484375 0.6215625 0 0 Z " fill="#101A4D" transform="translate(318,106)"/>
<path d="M0 0 C-1.28524261 0.86380259 -2.57842419 1.71580369 -3.875 2.5625 C-4.59429687 3.03816406 -5.31359375 3.51382812 -6.0546875 4.00390625 C-6.69664062 4.33261719 -7.33859375 4.66132813 -8 5 C-8.66 4.67 -9.32 4.34 -10 4 C-9.67 3.34 -9.34 2.68 -9 2 C-8.01 2 -7.02 2 -6 2 C-6 1.34 -6 0.68 -6 0 C-3.50907189 -1.24546405 -2.58919267 -0.7767578 0 0 Z " fill="#345DC5" transform="translate(178,282)"/>
<path d="M0 0 C1.2380014 3.57644848 0.74926071 6.33694766 0 10 C-0.33 10 -0.66 10 -1 10 C-1.33 7.03 -1.66 4.06 -2 1 C-1.34 0.67 -0.68 0.34 0 0 Z " fill="#171B54" transform="translate(421,89)"/>
<path d="M0 0 C3.40312738 1.05875074 6.01353231 2.00902154 9 4 C9 4.66 9 5.32 9 6 C5.06326356 4.68775452 2.77280706 3.08089673 0 0 Z " fill="#141A50" transform="translate(466,152)"/>
<path d="M0 0 C0.66 0.33 1.32 0.66 2 1 C1.67 2.98 1.34 4.96 1 7 C0.34 7 -0.32 7 -1 7 C-1.04254356 5.00045254 -1.04080783 2.99958364 -1 1 C-0.67 0.67 -0.34 0.34 0 0 Z " fill="#141955" transform="translate(499,132)"/>
</svg>
